<svg width="83" height="83" viewBox="0 0 83 83" fill="none" xmlns="http://www.w3.org/2000/svg">
<path d="M33.7999 33.1002C37.004 33.1002 40.1361 32.1501 42.8002 30.37C45.4642 28.5899 47.5406 26.0598 48.7668 23.0997C49.9929 20.1395 50.3137 16.8822 49.6886 13.7397C49.0636 10.5972 47.5207 7.71068 45.2551 5.44507C42.9894 3.17946 40.1029 1.63656 36.9604 1.01148C33.8179 0.3864 30.5606 0.707214 27.6005 1.93335C24.6403 3.15949 22.1102 5.23589 20.3301 7.89997C18.55 10.564 17.5999 13.6961 17.5999 16.9002C17.5866 19.0313 17.9966 21.1439 18.806 23.1153C19.6154 25.0868 20.8082 26.878 22.3152 28.3849C23.8221 29.8919 25.6133 31.0847 27.5848 31.8941C29.5562 32.7035 31.6688 33.1135 33.7999 33.1002Z" fill="white"/>
<path d="M65.5999 58.9001C64.2269 58.8804 62.8792 59.2707 61.7293 60.0212C60.5794 60.7718 59.6796 61.8483 59.145 63.1131C58.6104 64.3779 58.4653 65.7735 58.7284 67.1212C58.9914 68.4689 59.6506 69.7075 60.6216 70.6784C61.5925 71.6494 62.8311 72.3086 64.1788 72.5716C65.5265 72.8347 66.9221 72.6896 68.1869 72.155C69.4517 71.6204 70.5283 70.7206 71.2788 69.5707C72.0293 68.4208 72.4196 67.0731 72.3999 65.7001C72.374 63.9047 71.6493 62.1901 70.3796 60.9204C69.1099 59.6507 67.3953 58.926 65.5999 58.9001Z" fill="white"/>
<path d="M51.2 54.9002C52.0275 53.8064 52.9658 52.801 54 51.9002L53.8 48.6002L57.8 46.8002C55.1238 44.5861 51.977 43.0127 48.6 42.2002C44.1777 45.1196 38.999 46.6836 33.7 46.7002C28.4868 46.734 23.3895 45.163 19.1 42.2002C13.6629 43.6792 8.85641 46.891 5.40955 51.3485C1.96269 55.8059 0.0634927 61.2659 0 66.9002V68.0002H47.7C47.5667 66.7047 47.5333 65.4008 47.6 64.1002L45.1 61.9002L47.9 54.8002L51.2 54.9002Z" fill="white"/>
<path d="M80.4002 67.8004C80.6164 66.2049 80.5826 64.5855 80.3002 63.0004L80.1002 62.2004L82.2002 60.3004L80.8002 57.1004L78.0002 57.3004L77.5002 56.7004C76.5463 55.4294 75.3991 54.3159 74.1002 53.4004L73.4002 52.9004V50.1004L70.3002 48.9004L68.4002 51.0004H67.6002C66.0047 50.7842 64.3853 50.818 62.8002 51.1004H62.0002L60.1002 49.1004L56.9002 50.5004L57.2002 53.3004L56.5002 53.8004C55.2292 54.7543 54.1157 55.9015 53.2002 57.2004L52.8002 57.9004H49.9002L48.7002 61.0004L50.8002 62.9004V63.7004C50.584 65.2959 50.6178 66.9153 50.9002 68.5004L51.1002 69.2004L49.0002 71.2004L50.4002 74.3004L53.2002 74.1004L53.7002 74.8004C54.6631 76.0982 55.848 77.2154 57.2002 78.1004L57.9002 78.5004V81.4004L61.1002 82.6004L62.9002 80.5004H63.7002C65.2957 80.7166 66.9151 80.6828 68.5002 80.4004L69.3002 80.2004L71.0002 82.4004L74.2002 81.0004L74.0002 78.2004L74.6002 77.7004C75.898 76.7375 77.0152 75.5526 77.9002 74.2004L78.4002 73.5004H81.2002L82.4002 70.3004L80.3002 68.5004L80.4002 67.8004ZM65.6002 75.6004C63.638 75.6202 61.7142 75.0565 60.0731 73.9808C58.4319 72.9051 57.1475 71.3659 56.3828 69.5588C55.6181 67.7516 55.4078 65.758 55.7784 63.831C56.149 61.9041 57.0839 60.1307 58.4644 58.7362C59.8449 57.3416 61.6086 56.3887 63.5317 55.9986C65.4548 55.6084 67.4505 55.7985 69.2653 56.5448C71.0801 57.2911 72.6322 58.5599 73.7245 60.19C74.8169 61.8201 75.4001 63.7381 75.4002 65.7004C75.4003 68.3088 74.371 70.8119 72.536 72.6656C70.701 74.5194 68.2085 75.574 65.6002 75.6004Z" fill="white"/>
</svg>
