<svg width="16" height="10" viewBox="0 0 16 10" fill="none" xmlns="http://www.w3.org/2000/svg">
<path d="M1.71924 0.625C2.13408 0.625 2.46924 0.904297 2.46924 1.25V6.25H7.71924V3.125C7.71924 2.7793 8.05439 2.5 8.46924 2.5H13.7192C14.9614 2.5 15.9692 3.33984 15.9692 4.375V8.75C15.9692 9.0957 15.6341 9.375 15.2192 9.375C14.8044 9.375 14.4692 9.0957 14.4692 8.75V8.125H2.46924V8.75C2.46924 9.0957 2.13408 9.375 1.71924 9.375C1.30439 9.375 0.969238 9.0957 0.969238 8.75V1.25C0.969238 0.904297 1.30439 0.625 1.71924 0.625ZM5.09424 2.5C5.59152 2.5 6.06843 2.66462 6.42006 2.95765C6.77169 3.25067 6.96924 3.6481 6.96924 4.0625C6.96924 4.4769 6.77169 4.87433 6.42006 5.16735C6.06843 5.46038 5.59152 5.625 5.09424 5.625C4.59696 5.625 4.12004 5.46038 3.76841 5.16735C3.41678 4.87433 3.21924 4.4769 3.21924 4.0625C3.21924 3.6481 3.41678 3.25067 3.76841 2.95765C4.12004 2.66462 4.59696 2.5 5.09424 2.5Z" fill="white"/>
</svg>
