<svg width="26" height="26" viewBox="0 0 26 26" fill="none" xmlns="http://www.w3.org/2000/svg">
<path d="M11.9881 2.48267H9.88461C4.62593 2.48267 2.52246 4.58614 2.52246 9.84481V16.1552C2.52246 21.4139 4.62593 23.5174 9.88461 23.5174H16.195C21.4537 23.5174 23.5572 21.4139 23.5572 16.1552V14.0518" stroke="#757575" stroke-width="1.5776" stroke-linecap="round" stroke-linejoin="round"/>
<path d="M17.2887 3.5555L9.00105 11.8432C8.68553 12.1587 8.37001 12.7792 8.30691 13.2315L7.85466 16.3972C7.68638 17.5436 8.49622 18.3429 9.64261 18.1851L12.8083 17.7329C13.2501 17.6698 13.8706 17.3543 14.1966 17.0387L22.4843 8.75107C23.9147 7.32071 24.5878 5.65897 22.4843 3.5555C20.3808 1.45203 18.7191 2.12514 17.2887 3.5555Z" stroke="#757575" stroke-width="1.5776" stroke-miterlimit="10" stroke-linecap="round" stroke-linejoin="round"/>
<path d="M16.1001 4.74365C16.8048 7.2573 18.7715 9.22404 21.2957 9.93922" stroke="#757575" stroke-width="1.5776" stroke-miterlimit="10" stroke-linecap="round" stroke-linejoin="round"/>
</svg>
