<svg xmlns="http://www.w3.org/2000/svg" xmlns:xlink="http://www.w3.org/1999/xlink" version="1.1" width="1000" height="1000" viewBox="0 0 1000 1000" xml:space="preserve">
<desc>Created with Fabric.js 3.5.0</desc>
<defs>
</defs>
<rect x="0" y="0" width="100%" height="100%" fill="rgba(255,255,255,0)"/>
<g transform="matrix(0.1934 0 0 -0.1934 488.4067 541.7747)" id="60438">
<path style="stroke: none; stroke-width: 1; stroke-dasharray: none; stroke-linecap: butt; stroke-dashoffset: 0; stroke-linejoin: miter; stroke-miterlimit: 4; is-custom-font: none; font-file-url: none; fill: rgb(255,255,255); fill-rule: nonzero; opacity: 1;" vector-effect="non-scaling-stroke" transform=" translate(-2560, -2560.0528)" d="M 1520 4298 c -68 -47 -63 -24 -194 -809 l -122 -734 l -57 111 c -60 119 -96 159 -152 170 c -80 15 -99 3 -265 -161 l -155 -154 l -157 -3 c -171 -3 -184 -8 -232 -72 c -29 -39 -29 -133 0 -172 c 49 -67 57 -69 267 -72 c 106 -2 208 0 227 3 c 26 5 59 31 135 106 l 101 98 l 116 -233 c 93 -187 124 -240 153 -261 c 70 -54 166 -41 219 28 c 25 33 33 69 90 409 c 38 226 65 363 69 348 c 3 -14 49 -461 102 -995 c 53 -533 98 -979 102 -990 c 17 -62 88 -115 153 -115 c 42 0 104 33 130 69 c 16 24 54 195 170 778 c 83 411 150 749 150 750 c 0 2 121 3 269 3 c 164 0 281 4 298 11 c 15 5 71 53 123 104 l 95 95 l 117 -234 c 93 -187 124 -240 153 -261 c 70 -54 166 -41 219 28 c 25 33 33 69 90 409 c 38 226 65 363 69 348 c 3 -14 49 -461 102 -995 c 53 -533 100 -984 106 -1002 c 21 -67 107 -114 181 -99 c 36 7 93 47 108 77 c 8 14 310 1493 310 1515 c 0 2 56 4 124 6 c 135 3 154 10 200 72 c 29 39 29 133 0 172 c -51 68 -53 69 -294 69 c -308 0 -288 20 -367 -373 c -31 -155 -58 -281 -59 -279 c -2 2 -51 478 -109 1058 c -58 580 -107 1066 -111 1082 c -20 95 -154 149 -234 95 c -68 -47 -63 -24 -194 -809 l -122 -734 l -57 112 c -75 149 -126 187 -224 168 c -32 -6 -64 -32 -193 -160 l -155 -154 l -317 -3 c -302 -3 -318 -4 -344 -24 c -56 -41 -62 -61 -121 -352 c -31 -155 -58 -281 -59 -279 c -2 2 -51 478 -109 1058 c -58 580 -107 1066 -111 1082 c -7 34 -47 83 -85 102 c -43 23 -110 19 -149 -7 z" stroke-linecap="round"/>
</g>
</svg>