<svg width="35" height="25" viewBox="0 0 35 25" fill="none" xmlns="http://www.w3.org/2000/svg">
<path d="M9.57031 19.0137C9.03438 19.7949 8.75 20.6885 8.75 21.6064C8.20312 21.7773 7.6125 21.875 7 21.875C4.10156 21.875 1.75 19.7754 1.75 17.1875V3.125C0.782031 3.125 0 2.42676 0 1.5625C0 0.698242 0.782031 0 1.75 0H5.25H8.75H12.25C13.218 0 14 0.698242 14 1.5625C14 2.42676 13.218 3.125 12.25 3.125V15.1318L9.57031 19.0186V19.0137ZM5.25 3.125V7.8125H8.75V3.125H5.25ZM19.25 0H26.25H28C28.968 0 29.75 0.698242 29.75 1.5625C29.75 2.42676 28.968 3.125 28 3.125V10.4932L34.4367 19.834C34.8031 20.3662 35 20.9814 35 21.6113C35 23.4814 33.2992 25 31.2047 25H14.2953C12.2008 25 10.5 23.4814 10.5 21.6113C10.5 20.9863 10.6969 20.3711 11.0633 19.834L17.5 10.4932V3.125C16.532 3.125 15.75 2.42676 15.75 1.5625C15.75 0.698242 16.532 0 17.5 0H19.25ZM21 3.125V10.9375C21 11.2256 20.9125 11.5088 20.743 11.7578L18.0742 15.625H27.4258L24.757 11.7578C24.5875 11.5137 24.5 11.2305 24.5 10.9375V3.125H21Z" fill="white"/>
</svg>
