<svg width="390" height="207" viewBox="0 0 390 207" fill="none" xmlns="http://www.w3.org/2000/svg">
<g clip-path="url(#clip0_484_2283)">
<path d="M84.0058 165.039C79.354 171.82 76.8855 179.576 76.8855 187.544C72.1386 189.027 67.012 189.875 61.6955 189.875C36.5371 189.875 16.1255 171.65 16.1255 149.188V27.125C7.72358 27.125 0.935547 21.0643 0.935547 13.5625C0.935547 6.06074 7.72358 0 16.1255 0H46.5055H76.8855H107.266C115.668 0 122.456 6.06074 122.456 13.5625C122.456 21.0643 115.668 27.125 107.266 27.125V131.344L84.0058 165.081V165.039ZM46.5055 27.125V67.8125H76.8855V27.125H46.5055ZM168.026 0H228.786H243.976C252.378 0 259.166 6.06074 259.166 13.5625C259.166 21.0643 252.378 27.125 243.976 27.125V91.081L299.846 172.159C303.026 176.779 304.736 182.119 304.736 187.586C304.736 203.819 289.973 217 271.792 217H125.019C106.838 217 92.0755 203.819 92.0755 187.586C92.0755 182.161 93.7846 176.821 96.965 172.159L152.836 91.081V27.125C144.433 27.125 137.646 21.0643 137.646 13.5625C137.646 6.06074 144.433 0 152.836 0H168.026ZM183.216 27.125V94.9375C183.216 97.4382 182.456 99.8964 180.985 102.058L157.82 135.625H238.991L215.826 102.058C214.355 99.9389 213.596 97.4807 213.596 94.9375V27.125H183.216Z" fill="white"/>
</g>
<path d="M346.053 47L218.16 179.458L176.681 136.499L136 178.632L177.479 221.591L218.426 264L259.107 221.866L387 89.4089L346.053 47Z" fill="white" stroke="black" stroke-width="3" stroke-linecap="round"/>
<defs>
<clipPath id="clip0_484_2283">
<rect width="303.8" height="217" fill="white" transform="translate(0.935547)"/>
</clipPath>
</defs>
</svg>
