<svg width="29" height="27" viewBox="0 0 29 27" fill="none" xmlns="http://www.w3.org/2000/svg">
<path fill-rule="evenodd" clip-rule="evenodd" d="M12.0417 25.1667C12.0417 24.7799 11.888 24.409 11.6145 24.1355C11.341 23.862 10.9701 23.7083 10.5833 23.7083H3.29167V3.29167H10.5833C10.9701 3.29167 11.341 3.13802 11.6145 2.86453C11.888 2.59104 12.0417 2.22011 12.0417 1.83333C12.0417 1.44656 11.888 1.07563 11.6145 0.802136C11.341 0.528645 10.9701 0.375 10.5833 0.375H3.29167C2.51812 0.375 1.77625 0.682291 1.22927 1.22927C0.682291 1.77625 0.375 2.51812 0.375 3.29167V23.7083C0.375 24.4819 0.682291 25.2237 1.22927 25.7707C1.77625 26.3177 2.51812 26.625 3.29167 26.625H10.5833C10.9701 26.625 11.341 26.4714 11.6145 26.1979C11.888 25.9244 12.0417 25.5534 12.0417 25.1667Z" fill="white"/>
<path d="M27.6661 14.5209C27.9328 14.2497 28.0826 13.8848 28.0832 13.5044V13.4956C28.0824 13.1103 27.9287 12.7411 27.6559 12.469L21.8225 6.63564C21.688 6.49636 21.5271 6.38526 21.3492 6.30883C21.1713 6.2324 20.9799 6.19217 20.7863 6.19048C20.5926 6.1888 20.4006 6.2257 20.2214 6.29903C20.0421 6.37235 19.8793 6.48064 19.7424 6.61757C19.6055 6.75449 19.4972 6.91732 19.4238 7.09654C19.3505 7.27577 19.3136 7.4678 19.3153 7.66144C19.317 7.85507 19.3572 8.04643 19.4336 8.22436C19.5101 8.40228 19.6212 8.5632 19.7605 8.69772L23.1044 12.0417H9.12484C8.73806 12.0417 8.36713 12.1953 8.09364 12.4688C7.82015 12.7423 7.6665 13.1132 7.6665 13.5C7.6665 13.8868 7.82015 14.2577 8.09364 14.5312C8.36713 14.8047 8.73806 14.9584 9.12484 14.9584H23.1044L19.7605 18.3023C19.4948 18.5774 19.3478 18.9457 19.3511 19.3281C19.3545 19.7105 19.5078 20.0762 19.7782 20.3466C20.0486 20.617 20.4144 20.7704 20.7968 20.7737C21.1791 20.777 21.5475 20.63 21.8225 20.3644L27.6559 14.5311L27.6661 14.5209Z" fill="white"/>
</svg>
