<svg width="658" height="611" viewBox="0 0 658 611" fill="none" xmlns="http://www.w3.org/2000/svg">
<path d="M409.061 160.07C331.898 197.655 326.559 200.454 325.253 204.254C323.986 207.938 326.436 213.544 364.061 290.592C401.006 366.247 404.56 373.134 408.129 374.361C410.662 375.232 413.166 375.063 415.681 373.739L419.51 371.965L430.038 341.339L440.527 310.829L447.781 313.323C471.728 321.556 498.23 348.948 514.664 382.406C533.027 419.616 542.596 466.678 538.18 498.246C537.68 502.323 537.288 507.209 537.27 509.134C537.629 515.952 546.869 520.158 552.298 515.974C553.694 514.909 560.005 507.037 566.475 498.704C610.566 440.48 625.265 383.867 610.58 328.094C606.753 313.389 592.844 285.692 582.536 272.235C562.569 246.059 532.278 220.326 498.311 200.795C491.878 197.038 485.445 193.282 484.182 192.462L481.692 191.091L492.221 160.465L502.71 129.955L500.781 126.202C499.612 123.612 497.741 121.939 495.208 121.068C491.754 119.88 484.447 123.161 409.061 160.07Z" fill="#FF0000"/>
<path d="M113.072 154.868C106.797 154.771 93.722 161.347 89.9763 166.625C85.6442 172.86 8.53953 397.14 8.12191 404.721C7.78707 411.686 14.0579 424.528 19.7569 428.547C23.0849 430.85 77.7696 450.036 258.298 512.1C522.529 602.939 498.88 595.71 511.419 588.82C515.211 586.777 519.673 583.161 521.235 580.865C522.99 578.379 526.891 568.906 531.166 556.472C538.013 536.554 538.132 536.208 535.714 535.377C527.194 532.448 518.639 521.01 517.88 511.608C517.675 508.834 518.208 501.293 519.039 494.755C519.946 488.373 520.367 480.407 520.09 477.093L519.529 471.236L511.458 494.338C501.962 521.585 501.689 522.006 490.888 520.095C480.087 518.184 472.97 521.659 467.835 531.352C462.035 542.232 484.191 548.562 270.734 475.178C57.5075 401.873 78.6416 410.426 80.7181 398.394C82.6685 387.478 77.5993 377.882 68.3887 374.716C66.2011 373.964 64.1396 372.096 63.0459 369.661L61.1175 365.908L84.431 298.094C111.188 220.264 108.482 225.514 120.244 227.626C131.045 229.537 138.162 226.062 143.296 216.369C149.017 205.719 140.181 203.711 242.304 238.82L331.763 269.575L319.674 244.82L307.586 220.066L212.562 187.526C146.781 165.041 116.152 154.897 113.072 154.868Z" fill="#FF0000"/>
<path d="M153.165 235.597C146.904 242.199 138.395 246.354 129.339 247.232L122.287 247.897L102.931 304.197L83.5759 360.497L88.728 365.359C95.3301 371.619 99.4854 380.128 100.363 389.185L101.028 396.237L277.067 456.757L453.106 517.277L457.967 512.124C464.227 505.522 472.737 501.367 481.793 500.49L488.845 499.824L500.6 465.63L512.356 431.435L507.625 418.608C501.283 401.107 490.853 380.142 482.006 366.93C474.336 355.538 461.758 341.945 455.861 338.502L452.414 336.544L443.994 359.913L435.534 383.396L430.141 387.85C420.674 395.539 407.074 396.528 395.967 390.263C393.938 389.051 390.236 385.589 387.955 382.488L383.62 376.749L382.702 384.287C379.578 409.476 362.685 433.15 340.212 444.22C293.448 467.152 234.177 436.218 228.296 385.918C225.271 359.516 233.424 335.799 252.044 316.838C272.956 295.705 306.392 289.82 335.384 302.104C340.637 304.425 346.577 307.368 348.527 308.811L352.046 311.308L348.006 302.839L343.966 294.369L251.053 262.427L158.026 230.445L153.165 235.597ZM194.161 306.208C199.86 310.227 206.131 323.069 205.796 330.034C205.299 341.965 200.028 349.808 189.083 355.057C173.417 362.803 158.68 357.737 151.089 341.996C143.343 326.33 148.409 311.593 164.15 304.002C175.02 298.598 184.407 299.379 194.161 306.208ZM461.27 398.037C470.142 404.435 474.999 420.266 471.357 430.858C466.449 445.134 448.502 453.898 434.226 448.99C419.949 444.082 411.185 426.135 416.094 411.859C418.587 404.605 423.254 399.644 431.259 395.83C442.129 390.427 451.516 391.208 461.27 398.037Z" fill="#FF0000"/>
</svg>
