<svg width="681" height="682" viewBox="0 0 681 682" fill="none" xmlns="http://www.w3.org/2000/svg">
<path d="M343 1.86675C342.067 3.06675 341.934 4.66677 342.6 5.73343C343.134 6.8001 353.4 16.2668 365.4 26.6668L387.134 45.8668L342.734 67.7334C318.334 79.7334 287.534 94.8001 274.334 101.333C260.6 108 248.867 114.667 246.867 116.8C244.867 118.933 229.667 143.733 213 172C196.334 200.267 181.934 224.133 181 225.2C179.534 226.667 167.534 222.133 109.4 198.133C61.5336 178.4 37.9336 169.333 34.4669 169.333C19.8003 169.333 8.20026 184 12.2003 197.467C15.8003 209.333 15.2669 209.067 103.267 245.333C190.067 281.067 190.334 281.2 200.467 276C206.867 272.667 204.334 276.533 246.2 205.867L279.534 149.867L342.734 118.8C377.4 101.733 406.2 88.1334 406.734 88.5334C407.134 89.0668 408.334 102.133 409.4 117.733C411.267 146.667 412.334 150.933 416.734 148.533C418.734 147.333 525.4 8.93343 526.467 6.0001C526.867 5.06677 526.2 3.33342 525 2.13342C523 0.26675 514.334 8.31339e-05 433.8 8.31339e-05C357.667 8.31339e-05 344.467 0.26675 343 1.86675Z" fill="white"/>
<path d="M527.4 100.133C525.134 100.8 521.934 102.933 520.467 104.8L517.667 108.4V333.467V558.667L521.534 562.933L525.4 567.333L568.6 567.733C615.267 568.133 619.8 567.733 623.8 561.6C626.2 558.133 626.334 550 626.734 336.533C627 160.8 626.734 114 625.4 110C624.467 107.2 621.934 103.6 619.934 102.133C616.334 99.4665 614.467 99.3332 573.934 99.0665C550.6 98.9332 529.8 99.4665 527.4 100.133Z" fill="white"/>
<path d="M367.933 225.866C366.067 227.6 364.067 230.533 363.667 232.266C363.267 233.866 363.133 308.4 363.267 397.6L363.667 560L367.4 563.6L371 567.333L415 567.733C451.667 568 459.667 567.733 463.667 566.133C472.867 562.266 472.467 572.8 472.067 392.533L471.667 230.4L467.267 226.533L463 222.666H417.133H371.4L367.933 225.866Z" fill="white"/>
<path d="M62.4667 335.333C54.7333 339.467 55.1333 332.933 55 450.8V559.6L58.4667 563.067C60.3333 565.067 63.8 566.933 66.2 567.333C68.4667 567.733 89.4 568 112.733 567.733L155.267 567.333L159.133 562.933L163 558.667V450.667V342.667L159.133 338.4L155.267 334L110.733 333.6C72.8667 333.333 65.8 333.6 62.4667 335.333Z" fill="white"/>
<path d="M216.734 396.8C208.201 401.066 208.334 400 208.334 481.2C208.334 563.466 208.201 562.4 217.001 566.133C221.001 567.733 229.001 568 265.667 567.733L309.667 567.333L313.267 563.6L317.001 560L317.401 483.333C317.801 398 317.934 400.4 309.001 396.533C301.934 393.6 222.734 393.866 216.734 396.8Z" fill="white"/>
<path d="M27.4003 614.667C11.667 617.867 0.333651 631.867 0.466984 648C0.466984 661.6 6.33365 671.6 17.9337 678.133L25.0003 682H340.334H655.667L662.734 678.133C674.334 671.6 680.2 661.733 680.2 648C680.334 634.933 671.8 621.867 659.667 616.4C654.6 614.133 639.8 614 343.667 613.867C172.734 613.733 30.467 614.133 27.4003 614.667Z" fill="white"/>
</svg>
