<svg xmlns="http://www.w3.org/2000/svg" xmlns:xlink="http://www.w3.org/1999/xlink" version="1.1" width="1000" height="1000" viewBox="0 0 1000 1000" xml:space="preserve">
<desc>Created with Fabric.js 3.5.0</desc>
<defs>
</defs>
<rect x="0" y="0" width="100%" height="100%" fill="rgba(255,255,255,0)"/>
<g transform="matrix(1 0 0 1 500 500)" id="307260">
<g style="" vector-effect="non-scaling-stroke">
		<g transform="matrix(16 0 0 16 24 24)" id="794641">
<path style="stroke: rgb(255,255,255); stroke-width: 4; stroke-dasharray: none; stroke-linecap: butt; stroke-dashoffset: 0; stroke-linejoin: miter; stroke-miterlimit: 4; is-custom-font: none; font-file-url: none; fill: rgb(255,255,255); fill-rule: nonzero; opacity: 1;" transform=" translate(-25, -25)" d="M 46.966 23.345 c 0 -3.814 -3.115 -6.92 -6.931 -6.92 s -6.933 3.105 -6.933 6.92 c 0 3.435 2.496 6.267 5.769 6.813 v 7.267 c 0 5.664 -4.597 10.261 -10.261 10.261 c -5.664 0 -10.262 -4.598 -10.262 -10.261 L 18.323 29.1 c 2.686 -0.358 5.311 -1.929 7.646 -4.612 c 0.343 -0.394 0.447 -0.902 0.388 -1.387 c 3.052 -4.035 4.945 -9.53 4.945 -13.754 c 0 -6.521 -2.922 -7.198 -7.754 -8.304 l -0.007 -0.012 C 23.244 0.433 22.644 0 21.917 0 c -1.021 0 -1.849 0.827 -1.849 1.836 c 0 1.021 0.827 1.848 1.849 1.848 c 0.404 0 0.783 -0.168 1.084 -0.407 l 0.043 0.016 c 4.691 1.077 5.957 1.369 5.957 6.054 c 0 3.715 -1.758 8.69 -4.445 12.282 c -0.445 0.026 -0.885 0.222 -1.214 0.588 c -1.373 1.589 -3.567 3.491 -6.159 3.491 c -2.59 0 -4.782 -1.884 -6.155 -3.469 c -0.33 -0.366 -0.769 -0.562 -1.211 -0.587 c -2.694 -3.605 -4.456 -8.586 -4.456 -12.306 c 0 -4.688 1.245 -4.979 5.965 -6.056 l 0.016 -0.015 c 0.324 0.239 0.677 0.408 1.107 0.408 c 1.021 0 1.848 -0.828 1.848 -1.848 C 14.296 0.827 13.47 0 12.448 0 c -0.729 0 -1.328 0.433 -1.646 1.029 L 10.798 1.03 C 5.961 2.146 3.034 2.811 3.034 9.347 c 0 4.228 1.9 9.743 4.979 13.777 c -0.059 0.485 0.046 0.994 0.389 1.387 c 2.333 2.665 4.933 4.23 7.616 4.589 l 0.003 8.324 C 16.022 44.359 21.676 50 28.61 50 c 6.934 0 12.564 -5.641 12.564 -12.576 v -7.267 C 44.446 29.611 46.966 26.779 46.966 23.345 z M 40.035 27.975 c -2.543 0 -4.63 -2.074 -4.63 -4.628 c 0 -2.544 2.087 -4.617 4.63 -4.617 s 4.606 2.073 4.606 4.617 C 44.642 25.9 42.578 27.975 40.035 27.975 z" stroke-linecap="round"/>
</g>
		<g transform="matrix(16 0 0 16 264.56 -2.392)" id="818793">
<path style="stroke: rgb(255,255,255); stroke-width: 4; stroke-dasharray: none; stroke-linecap: butt; stroke-dashoffset: 0; stroke-linejoin: miter; stroke-miterlimit: 4; is-custom-font: none; font-file-url: none; fill: rgb(255,255,255); fill-rule: nonzero; opacity: 1;" transform=" translate(-40.035, -23.3505)" d="M 40.035 19.891 c -1.91 0 -3.466 1.545 -3.466 3.455 c 0 1.921 1.556 3.464 3.466 3.464 c 1.909 0 3.466 -1.543 3.466 -3.464 C 43.501 21.436 41.944 19.891 40.035 19.891 z" stroke-linecap="round"/>
</g>
</g>
</g>
</svg>