<svg width="37" height="38" viewBox="0 0 37 38" fill="none" xmlns="http://www.w3.org/2000/svg">
<path d="M25.0165 2.11886C24.8426 2.81413 24.7009 3.39441 24.6982 3.4051C24.6982 3.41847 24.8935 3.48533 25.1368 3.55485C25.9417 3.7875 26.6236 4.04956 27.3429 4.3972C29.9769 5.67274 32.0092 7.66495 33.3196 10.2562C33.7474 11.0985 34.0175 11.7831 34.2715 12.6629C34.3919 13.0773 34.4186 13.1442 34.4614 13.1362C34.563 13.1175 36.9697 12.5131 36.9777 12.5024C36.9965 12.4864 36.7478 11.636 36.6034 11.2055C36.1702 9.92992 35.507 8.57682 34.785 7.48846C32.6992 4.35441 29.6346 2.10549 25.9791 1.0305C25.7144 0.952949 25.4604 0.880748 25.4149 0.872725L25.332 0.854007L25.0165 2.11886Z" fill="white"/>
<path d="M24.0803 4.92647C24.0187 5.08425 23.2646 7.37328 23.2646 7.39735C23.2646 7.41339 23.3155 7.44013 23.3796 7.45885C23.647 7.53908 24.5429 7.91078 24.9654 8.11936C25.7195 8.49106 26.3586 8.89485 26.9977 9.40828C27.3507 9.68906 28.0673 10.3977 28.3668 10.7614C28.8696 11.3711 29.3402 12.1064 29.7199 12.8739C29.9285 13.2964 30.3002 14.1949 30.3804 14.4597C30.3992 14.5238 30.4259 14.5746 30.4419 14.5746C30.4847 14.5746 32.9021 13.7697 32.9262 13.7457C32.9396 13.735 32.87 13.513 32.7711 13.2536C32.033 11.2748 30.9955 9.62755 29.6023 8.23702C28.201 6.83579 26.5324 5.78754 24.5295 5.04414C24.3049 4.96124 24.115 4.89439 24.107 4.89439C24.099 4.89439 24.0856 4.91043 24.0803 4.92647Z" fill="white"/>
<path d="M22.3313 10.1654C21.8607 11.096 21.7404 11.35 21.7698 11.3687C21.7912 11.3821 21.9891 11.4891 22.2083 11.6041C24.1925 12.6416 25.1953 13.6471 26.2355 15.6313C26.3532 15.8505 26.4575 16.0484 26.4709 16.0698C26.4896 16.0992 26.7409 15.9816 27.6662 15.5109C28.3133 15.182 28.8455 14.9119 28.8508 14.9066C28.8669 14.8932 28.4577 14.1257 28.2438 13.7728C27.6742 12.8234 27.1474 12.1442 26.4227 11.4169C25.6579 10.6547 24.8557 10.0451 23.8288 9.45675C23.532 9.28561 22.9624 8.98611 22.9384 8.98611C22.933 8.98611 22.6603 9.51825 22.3313 10.1654Z" fill="white"/>
<path d="M13.8118 10.2187C13.6058 10.2481 13.4374 10.2749 13.4347 10.2776C13.432 10.2802 13.0309 11.0825 12.5416 12.0612L11.6511 13.8395L11.6457 16.1526C11.6404 18.11 11.635 18.4978 11.6003 18.6689C11.5548 18.8882 11.4853 19.0459 11.3569 19.2144C11.3115 19.2732 9.57597 21.0248 7.49819 23.1052L3.72235 26.8891L3.03511 30.3253L2.34519 33.7615L1.17393 34.9381L0 36.1148L0.943959 37.0587L1.88524 38L3.17951 36.7057L4.4711 35.4141L7.71212 34.767L10.9505 34.1199L14.0123 31.0634C15.697 29.384 17.1945 27.9053 17.3416 27.7796C18.1625 27.0763 18.6546 26.734 19.3017 26.4131L19.7376 26.1992L20.5452 26.1724C21.0987 26.1537 21.7672 26.1564 22.6684 26.1778L23.9841 26.2099L25.7704 25.3087C26.7517 24.8113 27.5593 24.4049 27.562 24.4049C27.5647 24.4022 27.5914 24.2096 27.6235 23.9743C27.6743 23.6187 27.6797 23.4716 27.669 23.1052C27.6208 21.7281 27.2652 20.4338 26.5405 18.9871C25.7597 17.4281 24.7221 16.0322 23.2647 14.5748C22.6523 13.9598 22.2272 13.5774 21.6121 13.0854C19.6039 11.4729 17.4726 10.4754 15.5098 10.2294C14.9509 10.1599 14.2503 10.1545 13.8118 10.2187ZM15.8628 12.9944C16.5206 13.1656 17.0447 13.3661 17.7159 13.7058C18.9755 14.3422 20.136 15.2113 21.3821 16.4574C22.3502 17.4281 23.0294 18.2651 23.6525 19.2625C24.3424 20.3643 24.8799 21.7307 24.9146 22.4688L24.9307 22.7549L24.1579 23.14L23.3851 23.5251L21.9009 23.5117C20.3392 23.501 19.4835 23.5251 19.0985 23.5999C18.4513 23.723 17.8871 24.0091 16.9832 24.6669C15.8227 25.5146 15.5152 25.7954 12.4185 28.8893L9.63213 31.6677L7.48749 32.0929C6.30821 32.3282 5.33484 32.5154 5.32682 32.5074C5.3188 32.4994 5.50331 31.5313 5.73863 30.3601L6.16114 28.2261L9.54656 24.83C11.4104 22.9608 13.0149 21.3323 13.1138 21.2066C13.6807 20.4926 14.0497 19.7546 14.1995 19.0352C14.3011 18.5405 14.3145 18.2598 14.3118 16.3264V14.4545L14.6969 13.6844L15.082 12.9169H15.3199C15.4991 12.9169 15.6382 12.9383 15.8628 12.9944Z" fill="white"/>
</svg>
