<svg width="100" height="100" viewBox="0 0 100 100" fill="none" xmlns="http://www.w3.org/2000/svg">
<rect x="0.4" y="0.4" width="99.2" height="99.2" rx="7.6" fill="white" stroke="#2650D6" stroke-width="0.8"/>
<path d="M36.2827 67.2V60.5908H38.4473C39.1333 60.5908 39.7277 60.7298 40.2304 61.0078C40.739 61.2798 41.1323 61.6643 41.4103 62.1611C41.6883 62.6579 41.8273 63.2345 41.8273 63.891C41.8273 64.5415 41.6883 65.1182 41.4103 65.6209C41.1323 66.1177 40.739 66.505 40.2304 66.783C39.7277 67.061 39.1333 67.2 38.4473 67.2H36.2827ZM37.3295 66.2685H38.465C38.9323 66.2685 39.3374 66.1709 39.6804 65.9757C40.0293 65.7805 40.2984 65.5055 40.4877 65.1507C40.6769 64.7958 40.7716 64.3759 40.7716 63.891C40.7716 63.406 40.674 62.989 40.4788 62.6401C40.2896 62.2853 40.0234 62.0102 39.6804 61.8151C39.3374 61.6199 38.9323 61.5223 38.465 61.5223H37.3295V66.2685ZM44.8986 67.3064C44.4373 67.3064 44.0144 67.197 43.63 66.9782C43.2515 66.7593 42.9499 66.4607 42.7251 66.0822C42.5004 65.7037 42.388 65.2749 42.388 64.7958C42.388 64.3109 42.5004 63.8821 42.7251 63.5095C42.9499 63.131 43.2515 62.8353 43.63 62.6224C44.0085 62.4035 44.4314 62.2941 44.8986 62.2941C45.3717 62.2941 45.7946 62.4035 46.1672 62.6224C46.5457 62.8353 46.8444 63.131 47.0632 63.5095C47.2879 63.8821 47.4003 64.3109 47.4003 64.7958C47.4003 65.2808 47.2879 65.7125 47.0632 66.091C46.8384 66.4695 46.5368 66.7682 46.1583 66.987C45.7798 67.2 45.3599 67.3064 44.8986 67.3064ZM44.8986 66.3749C45.1825 66.3749 45.4338 66.3069 45.6526 66.1709C45.8715 66.0349 46.043 65.8486 46.1672 65.612C46.2973 65.3695 46.3624 65.0975 46.3624 64.7958C46.3624 64.4942 46.2973 64.2251 46.1672 63.9885C46.043 63.752 45.8715 63.5657 45.6526 63.4297C45.4338 63.2936 45.1825 63.2256 44.8986 63.2256C44.6206 63.2256 44.3693 63.2936 44.1445 63.4297C43.9257 63.5657 43.7512 63.752 43.6211 63.9885C43.4969 64.2251 43.4348 64.4942 43.4348 64.7958C43.4348 65.0975 43.4969 65.3695 43.6211 65.612C43.7512 65.8486 43.9257 66.0349 44.1445 66.1709C44.3693 66.3069 44.6206 66.3749 44.8986 66.3749ZM48.2015 67.2V60.4844H49.204V64.9821L48.8137 64.8845L51.2178 62.4006H52.4686L50.6589 64.3257L52.5485 67.2H51.3952L49.7097 64.6539L50.304 64.5741L48.8846 66.0822L49.204 65.4168V67.2H48.2015ZM55.1334 67.2532C54.6307 67.2532 54.2404 67.1112 53.9624 66.8274C53.6844 66.5435 53.5455 66.1443 53.5455 65.6297V63.3055H52.7027V62.4006H52.8358C53.0605 62.4006 53.235 62.3355 53.3592 62.2054C53.4834 62.0753 53.5455 61.8979 53.5455 61.6731V61.3005H54.5479V62.4006H55.6391V63.3055H54.5479V65.5854C54.5479 65.751 54.5745 65.8929 54.6278 66.0112C54.681 66.1236 54.7667 66.2123 54.885 66.2773C55.0033 66.3365 55.1571 66.3661 55.3463 66.3661C55.3936 66.3661 55.4469 66.3631 55.506 66.3572C55.5652 66.3513 55.6213 66.3454 55.6746 66.3394V67.2C55.5918 67.2118 55.5001 67.2236 55.3996 67.2354C55.299 67.2473 55.2103 67.2532 55.1334 67.2532ZM58.7042 67.3064C58.2429 67.3064 57.82 67.197 57.4356 66.9782C57.0571 66.7593 56.7555 66.4607 56.5307 66.0822C56.306 65.7037 56.1936 65.2749 56.1936 64.7958C56.1936 64.3109 56.306 63.8821 56.5307 63.5095C56.7555 63.131 57.0571 62.8353 57.4356 62.6224C57.8141 62.4035 58.237 62.2941 58.7042 62.2941C59.1773 62.2941 59.6002 62.4035 59.9728 62.6224C60.3513 62.8353 60.65 63.131 60.8688 63.5095C61.0935 63.8821 61.2059 64.3109 61.2059 64.7958C61.2059 65.2808 61.0935 65.7125 60.8688 66.091C60.644 66.4695 60.3424 66.7682 59.9639 66.987C59.5854 67.2 59.1655 67.3064 58.7042 67.3064ZM58.7042 66.3749C58.9881 66.3749 59.2394 66.3069 59.4582 66.1709C59.6771 66.0349 59.8486 65.8486 59.9728 65.612C60.1029 65.3695 60.1679 65.0975 60.1679 64.7958C60.1679 64.4942 60.1029 64.2251 59.9728 63.9885C59.8486 63.752 59.6771 63.5657 59.4582 63.4297C59.2394 63.2936 58.9881 63.2256 58.7042 63.2256C58.4262 63.2256 58.1749 63.2936 57.9501 63.4297C57.7313 63.5657 57.5568 63.752 57.4267 63.9885C57.3025 64.2251 57.2404 64.4942 57.2404 64.7958C57.2404 65.0975 57.3025 65.3695 57.4267 65.612C57.5568 65.8486 57.7313 66.0349 57.9501 66.1709C58.1749 66.3069 58.4262 66.3749 58.7042 66.3749ZM62.0071 67.2V62.4006H62.9652V63.3676L62.8765 63.2256C62.983 62.9122 63.1545 62.6874 63.3911 62.5514C63.6276 62.4095 63.9115 62.3385 64.2427 62.3385H64.5355V63.2522H64.1185C63.7873 63.2522 63.5182 63.3557 63.3112 63.5627C63.1101 63.7638 63.0096 64.0536 63.0096 64.4321V67.2H62.0071Z" fill="#2650D6"/>
<path d="M55.1859 34.4169C55.1859 30.594 52.8912 29.2683 50.0607 29.2683C47.2302 29.2683 44.9355 30.594 44.9355 34.4169C44.9355 38.2401 47.2302 41.3391 50.0604 41.3391C52.8906 41.3391 55.1859 38.2401 55.1859 34.4169Z" fill="#FFD9CC"/>
<path d="M50.0612 41.7892C46.9871 41.7892 44.4863 38.482 44.4863 34.417C44.4863 30.8065 46.4663 28.8184 50.0612 28.8184C53.6561 28.8184 55.6364 30.8065 55.6364 34.417C55.6364 38.482 53.1353 41.7892 50.0612 41.7892ZM50.0612 29.7184C46.9592 29.7184 45.3863 31.2994 45.3863 34.417C45.3863 37.9858 47.4836 40.8892 50.0612 40.8892C52.6391 40.8892 54.7364 37.9858 54.7364 34.417C54.7364 31.2994 53.1632 29.7184 50.0612 29.7184Z" fill="black"/>
<path d="M47.2793 42.0476C42.9074 43.2629 39.6992 47.2727 39.6992 52.0316H60.422C60.422 47.3183 57.2753 43.3403 52.9682 42.0836L52.685 42.1283C51.968 42.7319 51.3602 42.9668 50.1572 42.9668C48.9281 42.9668 48.2792 42.7223 47.5625 42.0956L47.2793 42.0476Z" fill="#43C2AD"/>
<path d="M60.8728 52.4816H39.25V52.0316C39.25 47.1926 42.5026 42.9086 47.1595 41.6141L47.2564 41.5874L47.7637 41.6735L47.8594 41.7572C48.5176 42.3326 49.0762 42.5174 50.158 42.5174C51.3208 42.5174 51.8062 42.281 52.396 41.7845L52.4917 41.7038L52.9981 41.6237L53.0947 41.6519C57.6742 42.9881 60.8725 47.2565 60.8725 52.0319V52.4816H60.8728ZM40.1602 51.5816H59.9623C59.7709 47.4209 56.9413 43.7567 52.9384 42.5441L52.8769 42.5537C52.0876 43.1891 51.3601 43.4168 50.158 43.4168C48.9052 43.4168 48.1579 43.1798 47.3653 42.5183L47.3047 42.5081C43.2313 43.6853 40.3522 47.3645 40.1602 51.5816Z" fill="black"/>
<path d="M47.3662 48.0086C47.2468 48.0086 47.1324 47.9612 47.048 47.8768C46.9636 47.7924 46.9162 47.6779 46.9162 47.5586C46.9162 46.739 46.4137 46.0466 45.8191 46.0466C45.2245 46.0466 44.7223 46.739 44.7223 47.5586C44.7223 47.6779 44.6749 47.7924 44.5905 47.8768C44.5061 47.9612 44.3916 48.0086 44.2723 48.0086C44.1529 48.0086 44.0385 47.9612 43.9541 47.8768C43.8697 47.7924 43.8223 47.6779 43.8223 47.5586C43.8223 46.2287 44.7181 45.1466 45.8191 45.1466C46.9201 45.1466 47.8162 46.2287 47.8162 47.5586C47.8162 47.6779 47.7688 47.7924 47.6844 47.8768C47.6 47.9612 47.4855 48.0086 47.3662 48.0086ZM54.7744 48.311C54.7107 48.3111 54.6478 48.2976 54.5897 48.2716C54.5317 48.2455 54.4798 48.2075 54.4375 48.1599C54.3952 48.1123 54.3635 48.0563 54.3445 47.9956C54.3254 47.9349 54.3195 47.8708 54.3271 47.8076C54.5602 45.8576 54.3121 44.0459 54.0631 42.8696C54.0383 42.7529 54.061 42.6311 54.126 42.5311C54.191 42.431 54.2931 42.3609 54.4099 42.3362C54.5266 42.3115 54.6484 42.3341 54.7484 42.3991C54.8484 42.4642 54.9185 42.5663 54.9433 42.683C55.2067 43.9262 55.4683 45.8426 55.2205 47.9147C55.2074 48.0239 55.1548 48.1245 55.0726 48.1975C54.9904 48.2705 54.8843 48.3109 54.7744 48.311Z" fill="black"/>
<path d="M45.9152 46.0466C45.8053 46.0464 45.6992 46.006 45.617 45.9329C45.5348 45.8598 45.4822 45.7592 45.4691 45.65C45.2861 44.1191 45.3782 43.694 45.5708 43.0157C45.6248 42.8261 45.686 42.6113 45.7463 42.3263C45.7574 42.2674 45.7802 42.2112 45.8133 42.1612C45.8463 42.1112 45.8891 42.0683 45.939 42.035C45.9889 42.0018 46.0449 41.9788 46.1038 41.9675C46.1627 41.9562 46.2233 41.9568 46.2819 41.9693C46.3406 41.9817 46.3962 42.0057 46.4454 42.04C46.4946 42.0742 46.5366 42.1179 46.5687 42.1685C46.6008 42.2192 46.6224 42.2757 46.6324 42.3349C46.6423 42.394 46.6403 42.4545 46.6265 42.5129C46.5599 42.8279 46.4942 43.0586 46.4363 43.262C46.2791 43.8155 46.1924 44.1206 46.3622 45.5432C46.3698 45.6064 46.364 45.6704 46.345 45.7312C46.326 45.7919 46.2943 45.8479 46.252 45.8955C46.2098 45.9431 46.1579 45.9811 46.0999 46.0072C46.0418 46.0332 45.9789 46.0467 45.9152 46.0466ZM54.7673 50.5727C54.4043 50.5723 54.0563 50.4279 53.7996 50.1712C53.5429 49.9145 53.3985 49.5665 53.3981 49.2035C53.3985 48.8405 53.5429 48.4925 53.7996 48.2359C54.0563 47.9792 54.4044 47.8349 54.7673 47.8346C55.1303 47.8349 55.4784 47.9792 55.7351 48.2359C55.9918 48.4925 56.1362 48.8405 56.1365 49.2035C56.1362 49.5665 55.9918 49.9145 55.7351 50.1712C55.4784 50.4279 55.1304 50.5723 54.7673 50.5727ZM54.7673 48.4343C54.5634 48.4345 54.3679 48.5155 54.2237 48.6597C54.0795 48.8038 53.9984 48.9993 53.9981 49.2032C53.9984 49.4071 54.0795 49.6026 54.2237 49.7468C54.3679 49.891 54.5634 49.9722 54.7673 49.9724C54.9713 49.9722 55.1668 49.891 55.311 49.7468C55.4552 49.6026 55.5363 49.4071 55.5365 49.2032C55.5363 48.9993 55.4552 48.8038 55.311 48.6597C55.1668 48.5155 54.9713 48.4345 54.7673 48.4343Z" fill="black"/>
<path d="M54.767 49.7237C54.6291 49.7235 54.497 49.6687 54.3995 49.5711C54.302 49.4736 54.2472 49.3414 54.2471 49.2035C54.2471 48.9167 54.4805 48.6836 54.767 48.6836C55.0538 48.6836 55.2872 48.9167 55.2872 49.2035C55.287 49.3414 55.2321 49.4736 55.1346 49.5711C55.0371 49.6686 54.9049 49.7235 54.767 49.7237ZM54.767 48.9836C54.7381 48.9836 54.7095 48.9894 54.6828 49.0005C54.6561 49.0116 54.6318 49.0278 54.6114 49.0483C54.591 49.0688 54.5748 49.0931 54.5638 49.1198C54.5528 49.1465 54.5471 49.1752 54.5471 49.2041C54.5472 49.233 54.5529 49.2616 54.564 49.2883C54.5751 49.3151 54.5914 49.3393 54.6118 49.3597C54.6323 49.3801 54.6566 49.3963 54.6833 49.4074C54.7101 49.4184 54.7387 49.424 54.7676 49.424C54.826 49.4239 54.882 49.4006 54.9233 49.3593C54.9645 49.3179 54.9876 49.2619 54.9875 49.2035C54.9875 49.1451 54.9642 49.0891 54.9228 49.0479C54.8815 49.0066 54.8254 48.9835 54.767 48.9836ZM47.3 48.9929L46.9256 48.7433C47.4329 47.9822 47.1581 47.2133 47.1551 47.2058L47.5772 47.0498C47.5922 47.0897 47.933 48.0434 47.3 48.9929ZM44.1173 49.064C43.775 48.3275 44.0414 47.1284 44.0528 47.0777L44.4917 47.1773C44.4893 47.1884 44.2478 48.2777 44.5253 48.8744L44.1173 49.064Z" fill="black"/>
<path d="M44.3871 49.6277C44.6214 49.6277 44.8113 49.4378 44.8113 49.2035C44.8113 48.9692 44.6214 48.7793 44.3871 48.7793C44.1528 48.7793 43.9629 48.9692 43.9629 49.2035C43.9629 49.4378 44.1528 49.6277 44.3871 49.6277Z" fill="black"/>
<path d="M47.1082 49.5863C47.401 49.5863 47.6383 49.349 47.6383 49.0562C47.6383 48.7635 47.401 48.5261 47.1082 48.5261C46.8155 48.5261 46.5781 48.7635 46.5781 49.0562C46.5781 49.349 46.8155 49.5863 47.1082 49.5863Z" fill="black"/>
<path d="M49.749 43.1082H50.649V51.7728H49.749V43.1082Z" fill="black"/>
</svg>
