<svg width="100" height="100" viewBox="0 0 100 100" fill="none" xmlns="http://www.w3.org/2000/svg">
<rect x="0.4" y="0.4" width="99.2" height="99.2" rx="7.6" fill="white" stroke="#2650D6" stroke-width="0.8"/>
<path d="M18.2234 71.1025V62.8846H19.525V69.9443H23.0769V71.1025H18.2234ZM25.6147 71.2349C25.2102 71.2349 24.8536 71.165 24.5447 71.0253C24.2432 70.8782 24.0079 70.6797 23.8387 70.4297C23.6696 70.1723 23.585 69.8708 23.585 69.5251C23.585 69.2016 23.6549 68.9111 23.7946 68.6537C23.9417 68.3963 24.166 68.1794 24.4675 68.0029C24.769 67.8264 25.1477 67.7014 25.6036 67.6279L27.6774 67.2859V68.2676L25.8463 68.5875C25.5154 68.6464 25.2727 68.753 25.1183 68.9074C24.9639 69.0545 24.8867 69.2457 24.8867 69.481C24.8867 69.709 24.9712 69.8965 25.1404 70.0436C25.3168 70.1833 25.5411 70.2532 25.8132 70.2532C26.1515 70.2532 26.4457 70.1796 26.6957 70.0326C26.9531 69.8855 27.1516 69.6906 27.2914 69.4479C27.4311 69.1979 27.5009 68.9221 27.5009 68.6206V67.0873C27.5009 66.7932 27.3906 66.5542 27.17 66.3703C26.9568 66.1791 26.67 66.0835 26.3096 66.0835C25.9787 66.0835 25.6882 66.1718 25.4382 66.3483C25.1955 66.5174 25.0153 66.738 24.8977 67.0101L23.8608 66.4917C23.9711 66.1975 24.1513 65.9401 24.4013 65.7195C24.6513 65.4916 24.9418 65.3151 25.2727 65.1901C25.611 65.065 25.9677 65.0025 26.3427 65.0025C26.8134 65.0025 27.2288 65.0908 27.5892 65.2673C27.9569 65.4438 28.24 65.6901 28.4386 66.0063C28.6445 66.3152 28.7474 66.6755 28.7474 67.0873V71.1025H27.5561V70.0215L27.8098 70.0546C27.6701 70.2973 27.4899 70.5069 27.2693 70.6834C27.056 70.8599 26.8097 70.9959 26.5302 71.0915C26.2581 71.1871 25.953 71.2349 25.6147 71.2349ZM33.1721 71.2349C32.7088 71.2349 32.286 71.1393 31.9036 70.9481C31.5285 70.7569 31.2381 70.4811 31.0322 70.1208L31.1756 69.8892V71.1025H29.9842V62.7523H31.2307V66.3703L31.0322 66.0835C31.2528 65.7453 31.5469 65.4805 31.9146 65.2893C32.2823 65.0981 32.7015 65.0025 33.1721 65.0025C33.7384 65.0025 34.2458 65.1386 34.6944 65.4107C35.1503 65.6828 35.507 66.0541 35.7643 66.5248C36.0291 66.9954 36.1615 67.5249 36.1615 68.1132C36.1615 68.7015 36.0291 69.231 35.7643 69.7016C35.507 70.1723 35.154 70.5473 34.7054 70.8268C34.2568 71.0989 33.7457 71.2349 33.1721 71.2349ZM33.0508 70.0767C33.4038 70.0767 33.7163 69.9921 33.9884 69.823C34.2605 69.6538 34.4737 69.4222 34.6282 69.128C34.79 68.8265 34.8709 68.4883 34.8709 68.1132C34.8709 67.7382 34.79 67.4036 34.6282 67.1094C34.4737 66.8153 34.2605 66.5836 33.9884 66.4145C33.7163 66.2453 33.4038 66.1608 33.0508 66.1608C32.7052 66.1608 32.3926 66.2453 32.1132 66.4145C31.8411 66.5836 31.6241 66.8153 31.4624 67.1094C31.3079 67.4036 31.2307 67.7382 31.2307 68.1132C31.2307 68.4883 31.3079 68.8265 31.4624 69.128C31.6241 69.4222 31.8411 69.6538 32.1132 69.823C32.3926 69.9921 32.7052 70.0767 33.0508 70.0767ZM40.0324 71.2349C39.4588 71.2349 38.933 71.0989 38.455 70.8268C37.9843 70.5547 37.6093 70.1833 37.3298 69.7127C37.0504 69.242 36.9107 68.7089 36.9107 68.1132C36.9107 67.5102 37.0504 66.977 37.3298 66.5137C37.6093 66.0431 37.9843 65.6754 38.455 65.4107C38.9256 65.1386 39.4514 65.0025 40.0324 65.0025C40.6207 65.0025 41.1465 65.1386 41.6098 65.4107C42.0804 65.6754 42.4518 66.0431 42.7239 66.5137C43.0033 66.977 43.1431 67.5102 43.1431 68.1132C43.1431 68.7162 43.0033 69.2531 42.7239 69.7237C42.4444 70.1943 42.0694 70.5657 41.5987 70.8378C41.1281 71.1025 40.606 71.2349 40.0324 71.2349ZM40.0324 70.0767C40.3854 70.0767 40.6979 69.9921 40.97 69.823C41.2421 69.6538 41.4553 69.4222 41.6098 69.128C41.7716 68.8265 41.8525 68.4883 41.8525 68.1132C41.8525 67.7382 41.7716 67.4036 41.6098 67.1094C41.4553 66.8153 41.2421 66.5836 40.97 66.4145C40.6979 66.2453 40.3854 66.1608 40.0324 66.1608C39.6868 66.1608 39.3742 66.2453 39.0948 66.4145C38.8227 66.5836 38.6057 66.8153 38.444 67.1094C38.2895 67.4036 38.2123 67.7382 38.2123 68.1132C38.2123 68.4883 38.2895 68.8265 38.444 69.128C38.6057 69.4222 38.8227 69.6538 39.0948 69.823C39.3742 69.9921 39.6868 70.0767 40.0324 70.0767ZM44.1394 71.1025V65.1349H45.3307V66.3373L45.2204 66.1608C45.3527 65.771 45.566 65.4916 45.8601 65.3224C46.1543 65.1459 46.5073 65.0577 46.9191 65.0577H47.2831V66.1939H46.7647C46.3529 66.1939 46.0183 66.3225 45.7609 66.5799C45.5108 66.83 45.3858 67.1903 45.3858 67.6609V71.1025H44.1394ZM49.7022 71.2349C49.2977 71.2349 48.9411 71.165 48.6322 71.0253C48.3307 70.8782 48.0954 70.6797 47.9263 70.4297C47.7571 70.1723 47.6726 69.8708 47.6726 69.5251C47.6726 69.2016 47.7424 68.9111 47.8821 68.6537C48.0292 68.3963 48.2535 68.1794 48.555 68.0029C48.8565 67.8264 49.2352 67.7014 49.6912 67.6279L51.765 67.2859V68.2676L49.9339 68.5875C49.6029 68.6464 49.3603 68.753 49.2058 68.9074C49.0514 69.0545 48.9742 69.2457 48.9742 69.481C48.9742 69.709 49.0587 69.8965 49.2279 70.0436C49.4044 70.1833 49.6287 70.2532 49.9008 70.2532C50.239 70.2532 50.5332 70.1796 50.7832 70.0326C51.0406 69.8855 51.2392 69.6906 51.3789 69.4479C51.5186 69.1979 51.5885 68.9221 51.5885 68.6206V67.0873C51.5885 66.7932 51.4782 66.5542 51.2575 66.3703C51.0443 66.1791 50.7575 66.0835 50.3971 66.0835C50.0662 66.0835 49.7757 66.1718 49.5257 66.3483C49.283 66.5174 49.1029 66.738 48.9852 67.0101L47.9483 66.4917C48.0586 66.1975 48.2388 65.9401 48.4888 65.7195C48.7389 65.4916 49.0293 65.3151 49.3603 65.1901C49.6985 65.065 50.0552 65.0025 50.4302 65.0025C50.9009 65.0025 51.3164 65.0908 51.6767 65.2673C52.0444 65.4438 52.3275 65.6901 52.5261 66.0063C52.732 66.3152 52.8349 66.6755 52.8349 67.0873V71.1025H51.6436V70.0215L51.8973 70.0546C51.7576 70.2973 51.5774 70.5069 51.3568 70.6834C51.1436 70.8599 50.8972 70.9959 50.6178 71.0915C50.3457 71.1871 50.0405 71.2349 49.7022 71.2349ZM56.5452 71.1687C55.9202 71.1687 55.4348 70.9922 55.0892 70.6392C54.7435 70.2863 54.5707 69.7899 54.5707 69.1501V66.26H53.5228V65.1349H53.6883C53.9677 65.1349 54.1847 65.054 54.3391 64.8922C54.4935 64.7304 54.5707 64.5098 54.5707 64.2304V63.7671H55.8172V65.1349H57.174V66.26H55.8172V69.0949C55.8172 69.3009 55.8503 69.4773 55.9165 69.6244C55.9827 69.7641 56.0893 69.8744 56.2364 69.9553C56.3835 70.0289 56.5747 70.0656 56.81 70.0656C56.8688 70.0656 56.935 70.062 57.0085 70.0546C57.0821 70.0473 57.1519 70.0399 57.2181 70.0326V71.1025C57.1152 71.1172 57.0012 71.132 56.8762 71.1467C56.7511 71.1614 56.6408 71.1687 56.5452 71.1687ZM60.9852 71.2349C60.4116 71.2349 59.8858 71.0989 59.4078 70.8268C58.9372 70.5547 58.5621 70.1833 58.2827 69.7127C58.0032 69.242 57.8635 68.7089 57.8635 68.1132C57.8635 67.5102 58.0032 66.977 58.2827 66.5137C58.5621 66.0431 58.9372 65.6754 59.4078 65.4107C59.8784 65.1386 60.4042 65.0025 60.9852 65.0025C61.5735 65.0025 62.0993 65.1386 62.5626 65.4107C63.0332 65.6754 63.4046 66.0431 63.6767 66.5137C63.9561 66.977 64.0959 67.5102 64.0959 68.1132C64.0959 68.7162 63.9561 69.2531 63.6767 69.7237C63.3973 70.1943 63.0222 70.5657 62.5516 70.8378C62.0809 71.1025 61.5588 71.2349 60.9852 71.2349ZM60.9852 70.0767C61.3382 70.0767 61.6507 69.9921 61.9228 69.823C62.1949 69.6538 62.4082 69.4222 62.5626 69.128C62.7244 68.8265 62.8053 68.4883 62.8053 68.1132C62.8053 67.7382 62.7244 67.4036 62.5626 67.1094C62.4082 66.8153 62.1949 66.5836 61.9228 66.4145C61.6507 66.2453 61.3382 66.1608 60.9852 66.1608C60.6396 66.1608 60.327 66.2453 60.0476 66.4145C59.7755 66.5836 59.5586 66.8153 59.3968 67.1094C59.2423 67.4036 59.1651 67.7382 59.1651 68.1132C59.1651 68.4883 59.2423 68.8265 59.3968 69.128C59.5586 69.4222 59.7755 69.6538 60.0476 69.823C60.327 69.9921 60.6396 70.0767 60.9852 70.0767ZM65.0922 71.1025V65.1349H66.2835V66.3373L66.1732 66.1608C66.3056 65.771 66.5188 65.4916 66.813 65.3224C67.1071 65.1459 67.4601 65.0577 67.8719 65.0577H68.2359V66.1939H67.7175C67.3057 66.1939 66.9711 66.3225 66.7137 66.5799C66.4637 66.83 66.3386 67.1903 66.3386 67.6609V71.1025H65.0922ZM68.868 71.1025V65.1349H70.1145V71.1025H68.868ZM68.868 64.3186V62.8846H70.1145V64.3186H68.868ZM71.8807 73.5403C71.7337 73.5403 71.5866 73.5256 71.4395 73.4962C71.2998 73.4741 71.1711 73.4374 71.0534 73.3859V72.3159C71.1417 72.338 71.2483 72.3564 71.3733 72.3711C71.4983 72.3931 71.6197 72.4042 71.7373 72.4042C72.083 72.4042 72.3367 72.327 72.4984 72.1725C72.6676 72.0254 72.8183 71.7938 72.9507 71.4776L73.3478 70.5731L73.3258 71.621L70.7446 65.1349H72.0793L73.9876 70.1098H73.5353L75.4326 65.1349H76.7784L74.142 71.7534C74.0023 72.1063 73.8258 72.4152 73.6126 72.6799C73.4066 72.952 73.1603 73.1616 72.8735 73.3087C72.594 73.4631 72.2631 73.5403 71.8807 73.5403ZM78.9824 71.2349C78.5779 71.2349 78.2213 71.165 77.9124 71.0253C77.6109 70.8782 77.3756 70.6797 77.2064 70.4297C77.0373 70.1723 76.9527 69.8708 76.9527 69.5251C76.9527 69.2016 77.0226 68.9111 77.1623 68.6537C77.3094 68.3963 77.5337 68.1794 77.8352 68.0029C78.1367 67.8264 78.5154 67.7014 78.9713 67.6279L81.0451 67.2859V68.2676L79.214 68.5875C78.8831 68.6464 78.6404 68.753 78.486 68.9074C78.3316 69.0545 78.2543 69.2457 78.2543 69.481C78.2543 69.709 78.3389 69.8965 78.5081 70.0436C78.6845 70.1833 78.9088 70.2532 79.1809 70.2532C79.5192 70.2532 79.8134 70.1796 80.0634 70.0326C80.3208 69.8855 80.5193 69.6906 80.659 69.4479C80.7988 69.1979 80.8686 68.9221 80.8686 68.6206V67.0873C80.8686 66.7932 80.7583 66.5542 80.5377 66.3703C80.3244 66.1791 80.0376 66.0835 79.6773 66.0835C79.3464 66.0835 79.0559 66.1718 78.8059 66.3483C78.5632 66.5174 78.383 66.738 78.2654 67.0101L77.2285 66.4917C77.3388 66.1975 77.519 65.9401 77.769 65.7195C78.019 65.4916 78.3095 65.3151 78.6404 65.1901C78.9787 65.065 79.3354 65.0025 79.7104 65.0025C80.181 65.0025 80.5965 65.0908 80.9569 65.2673C81.3246 65.4438 81.6077 65.6901 81.8062 66.0063C82.0122 66.3152 82.1151 66.6755 82.1151 67.0873V71.1025H80.9238V70.0215L81.1775 70.0546C81.0378 70.2973 80.8576 70.5069 80.637 70.6834C80.4237 70.8599 80.1774 70.9959 79.8979 71.0915C79.6258 71.1871 79.3207 71.2349 78.9824 71.2349Z" fill="#2650D6"/>
<path d="M49.3829 41.9446C48.9707 41.9446 48.5754 41.7808 48.284 41.4892L42.7881 35.9887C42.4967 35.6972 42.333 35.3019 42.333 34.8898C42.333 34.4776 42.4967 34.0824 42.7881 33.7909L52.6779 23.9011C52.848 23.7302 53.0555 23.6014 53.2841 23.5249L56.5807 22.426C56.8548 22.3346 57.1489 22.3214 57.43 22.3879C57.7111 22.4543 57.9682 22.5978 58.1723 22.8022L61.4705 26.0988C61.6746 26.3031 61.8178 26.5602 61.884 26.8414C61.9501 27.1225 61.9367 27.4165 61.8451 27.6904L60.7446 30.9886C60.6689 31.2171 60.5406 31.4247 60.3701 31.5947L50.4817 41.4892C50.1903 41.7808 49.7951 41.9446 49.3829 41.9446Z" fill="#D8D8FF"/>
<path d="M42.7885 35.9885L40.5877 38.1878C40.4432 38.3322 40.3285 38.5036 40.2503 38.6923C40.1721 38.881 40.1318 39.0832 40.1318 39.2875C40.1318 39.4917 40.1721 39.694 40.2503 39.8827C40.3285 40.0714 40.4432 40.2428 40.5877 40.3871L43.8859 43.6822C44.1773 43.9736 44.5726 44.1373 44.9847 44.1373C45.3969 44.1373 45.7921 43.9736 46.0836 43.6822L48.2814 41.486L42.7885 35.9885Z" fill="#B2B1FF"/>
<path d="M44.0351 48.7851H37.8179C37.4057 48.7851 37.0104 48.6213 36.7189 48.3298C36.4274 48.0383 36.2637 47.643 36.2637 47.2308C36.2637 46.8186 36.4274 46.4232 36.7189 46.1318C37.0104 45.8403 37.4057 45.6765 37.8179 45.6765H44.0351C44.4473 45.6765 44.8426 45.8403 45.1341 46.1318C45.4256 46.4232 45.5893 46.8186 45.5893 47.2308C45.5893 47.643 45.4256 48.0383 45.1341 48.3298C44.8426 48.6213 44.4473 48.7851 44.0351 48.7851Z" fill="#6563FF"/>
<path d="M62.6864 56.5563H37.8179C37.4057 56.5563 37.0104 56.3926 36.7189 56.1011C36.4274 55.8096 36.2637 55.4142 36.2637 55.002C36.2637 54.5898 36.4274 54.1945 36.7189 53.903C37.0104 53.6115 37.4057 53.4478 37.8179 53.4478H62.6864C63.0986 53.4478 63.4939 53.6115 63.7854 53.903C64.0769 54.1945 64.2406 54.5898 64.2406 55.002C64.2406 55.4142 64.0769 55.8096 63.7854 56.1011C63.4939 56.3926 63.0986 56.5563 62.6864 56.5563Z" fill="#B2B1FF"/>
<path d="M54.6285 53.4478C54.8127 52.9501 54.9094 52.4242 54.9145 51.8935C54.9145 50.6569 54.4233 49.4709 53.5488 48.5964C52.6744 47.722 51.4884 47.2307 50.2517 47.2307C49.015 47.2307 47.829 47.722 46.9546 48.5964C46.0801 49.4709 45.5889 50.6569 45.5889 51.8935C45.594 52.4242 45.6907 52.9501 45.8749 53.4478H54.6285Z" fill="#D8D8FF"/>
<path d="M59.3804 32.5864L57.1811 34.7857C58.7266 36.4915 59.5811 38.7119 59.5778 41.0137C59.5682 42.7836 59.059 44.5148 58.109 46.0081C57.159 47.5014 55.8068 48.6962 54.2078 49.455C54.667 50.1863 54.912 51.0317 54.915 51.8952C54.9106 52.1074 54.8898 52.3188 54.8528 52.5278C57.1532 51.6018 59.1262 50.0126 60.5211 47.9624C61.916 45.9121 62.6697 43.4934 62.6864 41.0137C62.6909 37.8874 61.5094 34.8758 59.3804 32.5864ZM46.2421 49.5529C45.6505 49.313 45.081 49.0218 44.5402 48.6825C44.3783 48.7452 44.207 48.7799 44.0335 48.7851H39.8789C41.4471 50.5379 43.4374 51.8605 45.6608 52.6273C45.6154 52.3853 45.5915 52.1398 45.5893 51.8936C45.5937 51.0691 45.8191 50.2607 46.2421 49.5529Z" fill="#B2B1FF"/>
</svg>
