<svg width="100" height="100" viewBox="0 0 100 100" fill="none" xmlns="http://www.w3.org/2000/svg">
<rect x="0.4" y="0.4" width="99.2" height="99.2" rx="7.6" fill="white" stroke="#2650D6" stroke-width="0.8"/>
<path d="M23.8833 67.2V60.5908H26.2874C26.731 60.5908 27.1213 60.6736 27.4584 60.8392C27.7955 60.9989 28.0587 61.2355 28.248 61.5489C28.4431 61.8565 28.5407 62.2261 28.5407 62.6579C28.5407 63.1132 28.4254 63.5036 28.1947 63.8289C27.97 64.1541 27.6654 64.3907 27.281 64.5386L28.8068 67.2H27.6181L25.9947 64.3168L26.6777 64.716H24.9301V67.2H23.8833ZM24.9301 63.7845H26.3051C26.5476 63.7845 26.7576 63.7372 26.935 63.6426C27.1124 63.5479 27.2485 63.4178 27.3431 63.2522C27.4436 63.0807 27.4939 62.8796 27.4939 62.649C27.4939 62.4183 27.4436 62.2202 27.3431 62.0546C27.2485 61.8831 27.1124 61.753 26.935 61.6643C26.7576 61.5696 26.5476 61.5223 26.3051 61.5223H24.9301V63.7845ZM31.3975 67.3064C30.9184 67.3064 30.4926 67.197 30.12 66.9782C29.7533 66.7534 29.4665 66.4518 29.2595 66.0733C29.0525 65.6889 28.949 65.2601 28.949 64.787C28.949 64.302 29.0525 63.8732 29.2595 63.5006C29.4724 63.128 29.7563 62.8353 30.1111 62.6224C30.466 62.4035 30.8682 62.2941 31.3176 62.2941C31.6784 62.2941 32.0007 62.3562 32.2846 62.4804C32.5685 62.6046 32.808 62.7761 33.0032 62.995C33.1983 63.2079 33.3462 63.4533 33.4467 63.7313C33.5532 64.0092 33.6064 64.305 33.6064 64.6184C33.6064 64.6953 33.6035 64.7751 33.5976 64.8579C33.5916 64.9407 33.5798 65.0176 33.5621 65.0886H29.7385V64.2902H32.9943L32.5153 64.6539C32.5744 64.3641 32.5537 64.1068 32.4532 63.8821C32.3585 63.6514 32.2107 63.4711 32.0096 63.3409C31.8144 63.2049 31.5838 63.1369 31.3176 63.1369C31.0515 63.1369 30.8149 63.2049 30.6079 63.3409C30.4009 63.4711 30.2412 63.6603 30.1289 63.9087C30.0165 64.1512 29.9722 64.4469 29.9958 64.7958C29.9662 65.1211 30.0106 65.405 30.1289 65.6475C30.2531 65.89 30.4246 66.0792 30.6434 66.2152C30.8682 66.3513 31.1225 66.4193 31.4063 66.4193C31.6961 66.4193 31.9416 66.3542 32.1427 66.2241C32.3497 66.094 32.5123 65.9254 32.6306 65.7184L33.4467 66.1177C33.3521 66.3424 33.2043 66.5464 33.0032 66.7298C32.808 66.9072 32.5714 67.0491 32.2935 67.1556C32.0214 67.2561 31.7228 67.3064 31.3975 67.3064ZM36.7227 69.1516C36.3738 69.1516 36.0515 69.0954 35.7558 68.9831C35.4601 68.8707 35.2057 68.714 34.9928 68.5129C34.7799 68.3177 34.6202 68.0871 34.5138 67.8209L35.4364 67.4395C35.5192 67.6642 35.67 67.8505 35.8888 67.9984C36.1136 68.1462 36.3886 68.2201 36.7139 68.2201C36.9682 68.2201 37.1959 68.1699 37.397 68.0693C37.598 67.9747 37.7577 67.8328 37.876 67.6435C37.9943 67.4602 38.0534 67.2384 38.0534 66.9782V65.8959L38.2309 66.0999C38.0653 66.4074 37.8346 66.6411 37.5389 66.8007C37.2491 66.9604 36.9209 67.0403 36.5542 67.0403C36.1106 67.0403 35.7114 66.9368 35.3566 66.7298C35.0017 66.5228 34.7208 66.2389 34.5138 65.8781C34.3127 65.5174 34.2122 65.1122 34.2122 64.6628C34.2122 64.2074 34.3127 63.8022 34.5138 63.4474C34.7208 63.0925 34.9988 62.8116 35.3477 62.6046C35.6966 62.3976 36.0958 62.2941 36.5453 62.2941C36.912 62.2941 37.2373 62.374 37.5212 62.5337C37.811 62.6874 38.0475 62.9122 38.2309 63.2079L38.0978 63.4563V62.4006H39.047V66.9782C39.047 67.3922 38.9465 67.7618 38.7454 68.0871C38.5502 68.4183 38.2782 68.6785 37.9292 68.8678C37.5803 69.057 37.1781 69.1516 36.7227 69.1516ZM36.6695 66.1088C36.9357 66.1088 37.1722 66.0467 37.3792 65.9225C37.5862 65.7924 37.7489 65.6209 37.8671 65.408C37.9913 65.1891 38.0534 64.9437 38.0534 64.6716C38.0534 64.3996 37.9913 64.1541 37.8671 63.9353C37.7429 63.7165 37.5773 63.545 37.3703 63.4208C37.1633 63.2907 36.9297 63.2256 36.6695 63.2256C36.3975 63.2256 36.155 63.2907 35.9421 63.4208C35.7292 63.545 35.5606 63.7165 35.4364 63.9353C35.3181 64.1482 35.259 64.3937 35.259 64.6716C35.259 64.9378 35.3181 65.1803 35.4364 65.3991C35.5606 65.6179 35.7292 65.7924 35.9421 65.9225C36.155 66.0467 36.3975 66.1088 36.6695 66.1088ZM40.043 67.2V62.4006H41.0455V67.2H40.043ZM40.043 61.7441V60.5908H41.0455V61.7441H40.043ZM43.8144 67.3064C43.3235 67.3064 42.8917 67.1852 42.5192 66.9427C42.1525 66.7002 41.8952 66.3749 41.7474 65.9668L42.5192 65.6031C42.6493 65.8752 42.8267 66.091 43.0514 66.2507C43.2821 66.4104 43.5364 66.4902 43.8144 66.4902C44.0509 66.4902 44.2431 66.437 44.391 66.3306C44.5389 66.2241 44.6128 66.0792 44.6128 65.8959C44.6128 65.7776 44.5803 65.683 44.5152 65.612C44.4501 65.5351 44.3673 65.473 44.2668 65.4257C44.1722 65.3784 44.0746 65.3429 43.974 65.3192L43.22 65.1063C42.806 64.988 42.4955 64.8106 42.2885 64.5741C42.0874 64.3316 41.9869 64.0506 41.9869 63.7313C41.9869 63.4415 42.0608 63.1901 42.2087 62.9772C42.3565 62.7584 42.5606 62.5898 42.8208 62.4716C43.081 62.3533 43.3738 62.2941 43.699 62.2941C44.1367 62.2941 44.527 62.4035 44.87 62.6224C45.2131 62.8353 45.4556 63.1339 45.5975 63.5184L44.8257 63.8821C44.7311 63.6514 44.5803 63.4681 44.3733 63.3321C44.1722 63.196 43.9445 63.128 43.6902 63.128C43.4713 63.128 43.2969 63.1813 43.1668 63.2877C43.0366 63.3883 42.9716 63.5213 42.9716 63.6869C42.9716 63.7993 43.0012 63.8939 43.0603 63.9708C43.1194 64.0418 43.1963 64.1009 43.291 64.1482C43.3856 64.1896 43.4832 64.2251 43.5837 64.2547L44.3644 64.4853C44.7606 64.5977 45.0652 64.7751 45.2781 65.0176C45.491 65.2542 45.5975 65.5381 45.5975 65.8693C45.5975 66.1531 45.5206 66.4045 45.3668 66.6233C45.219 66.8362 45.012 67.0048 44.7458 67.129C44.4797 67.2473 44.1692 67.3064 43.8144 67.3064ZM48.4782 67.2532C47.9755 67.2532 47.5851 67.1112 47.3072 66.8274C47.0292 66.5435 46.8902 66.1443 46.8902 65.6297V63.3055H46.0474V62.4006H46.1805C46.4052 62.4006 46.5797 62.3355 46.7039 62.2054C46.8281 62.0753 46.8902 61.8979 46.8902 61.6731V61.3005H47.8927V62.4006H48.9838V63.3055H47.8927V65.5854C47.8927 65.751 47.9193 65.8929 47.9725 66.0112C48.0257 66.1236 48.1115 66.2123 48.2298 66.2773C48.3481 66.3365 48.5018 66.3661 48.6911 66.3661C48.7384 66.3661 48.7916 66.3631 48.8508 66.3572C48.9099 66.3513 48.9661 66.3454 49.0193 66.3394V67.2C48.9365 67.2118 48.8448 67.2236 48.7443 67.2354C48.6438 67.2473 48.5551 67.2532 48.4782 67.2532ZM49.8202 67.2V62.4006H50.7783V63.3676L50.6895 63.2256C50.796 62.9122 50.9675 62.6874 51.2041 62.5514C51.4406 62.4095 51.7245 62.3385 52.0557 62.3385H52.3485V63.2522H51.9315C51.6003 63.2522 51.3312 63.3557 51.1242 63.5627C50.9232 63.7638 50.8226 64.0536 50.8226 64.4321V67.2H49.8202ZM54.294 67.3064C53.9687 67.3064 53.6819 67.2502 53.4335 67.1379C53.191 67.0196 53.0017 66.8599 52.8657 66.6588C52.7297 66.4518 52.6617 66.2093 52.6617 65.9314C52.6617 65.6711 52.7179 65.4375 52.8302 65.2305C52.9485 65.0235 53.1289 64.8491 53.3714 64.7071C53.6139 64.5652 53.9184 64.4646 54.2851 64.4055L55.9529 64.1305V64.92L54.4803 65.1773C54.2141 65.2246 54.019 65.3104 53.8948 65.4346C53.7706 65.5528 53.7085 65.7066 53.7085 65.8959C53.7085 66.0792 53.7765 66.23 53.9125 66.3483C54.0545 66.4607 54.2348 66.5169 54.4537 66.5169C54.7257 66.5169 54.9623 66.4577 55.1634 66.3394C55.3704 66.2212 55.5301 66.0644 55.6424 65.8693C55.7548 65.6682 55.811 65.4464 55.811 65.2039V63.9708C55.811 63.7342 55.7223 63.542 55.5448 63.3942C55.3733 63.2404 55.1427 63.1635 54.8529 63.1635C54.5867 63.1635 54.3531 63.2345 54.152 63.3764C53.9569 63.5125 53.812 63.6899 53.7174 63.9087L52.8835 63.4918C52.9722 63.2552 53.1171 63.0482 53.3181 62.8708C53.5192 62.6874 53.7528 62.5455 54.019 62.4449C54.291 62.3444 54.5779 62.2941 54.8795 62.2941C55.258 62.2941 55.5922 62.3651 55.8819 62.507C56.1777 62.649 56.4054 62.8471 56.565 63.1014C56.7306 63.3498 56.8134 63.6396 56.8134 63.9708V67.2H55.8553V66.3306L56.0594 66.3572C55.947 66.5523 55.8021 66.7209 55.6247 66.8628C55.4532 67.0048 55.255 67.1142 55.0303 67.1911C54.8115 67.268 54.566 67.3064 54.294 67.3064ZM59.7974 67.2532C59.2947 67.2532 58.9043 67.1112 58.6264 66.8274C58.3484 66.5435 58.2094 66.1443 58.2094 65.6297V63.3055H57.3666V62.4006H57.4997C57.7244 62.4006 57.8989 62.3355 58.0231 62.2054C58.1473 62.0753 58.2094 61.8979 58.2094 61.6731V61.3005H59.2119V62.4006H60.303V63.3055H59.2119V65.5854C59.2119 65.751 59.2385 65.8929 59.2917 66.0112C59.3449 66.1236 59.4307 66.2123 59.549 66.2773C59.6673 66.3365 59.821 66.3661 60.0103 66.3661C60.0576 66.3661 60.1108 66.3631 60.17 66.3572C60.2291 66.3513 60.2853 66.3454 60.3385 66.3394V67.2C60.2557 67.2118 60.1641 67.2236 60.0635 67.2354C59.963 67.2473 59.8743 67.2532 59.7974 67.2532ZM62.9136 67.3064C62.4227 67.3064 61.991 67.1852 61.6184 66.9427C61.2517 66.7002 60.9945 66.3749 60.8466 65.9668L61.6184 65.6031C61.7485 65.8752 61.926 66.091 62.1507 66.2507C62.3813 66.4104 62.6357 66.4902 62.9136 66.4902C63.1502 66.4902 63.3424 66.437 63.4903 66.3306C63.6381 66.2241 63.712 66.0792 63.712 65.8959C63.712 65.7776 63.6795 65.683 63.6145 65.612C63.5494 65.5351 63.4666 65.473 63.3661 65.4257C63.2714 65.3784 63.1738 65.3429 63.0733 65.3192L62.3192 65.1063C61.9053 64.988 61.5948 64.8106 61.3878 64.5741C61.1867 64.3316 61.0861 64.0506 61.0861 63.7313C61.0861 63.4415 61.1601 63.1901 61.3079 62.9772C61.4558 62.7584 61.6598 62.5898 61.92 62.4716C62.1803 62.3533 62.473 62.2941 62.7983 62.2941C63.2359 62.2941 63.6263 62.4035 63.9693 62.6224C64.3123 62.8353 64.5548 63.1339 64.6968 63.5184L63.9249 63.8821C63.8303 63.6514 63.6795 63.4681 63.4725 63.3321C63.2714 63.196 63.0437 63.128 62.7894 63.128C62.5706 63.128 62.3961 63.1813 62.266 63.2877C62.1359 63.3883 62.0708 63.5213 62.0708 63.6869C62.0708 63.7993 62.1004 63.8939 62.1596 63.9708C62.2187 64.0418 62.2956 64.1009 62.3902 64.1482C62.4848 64.1896 62.5824 64.2251 62.683 64.2547L63.4636 64.4853C63.8599 64.5977 64.1645 64.7751 64.3774 65.0176C64.5903 65.2542 64.6968 65.5381 64.6968 65.8693C64.6968 66.1531 64.6199 66.4045 64.4661 66.6233C64.3182 66.8362 64.1112 67.0048 63.8451 67.129C63.579 67.2473 63.2685 67.3064 62.9136 67.3064ZM65.5015 67.2V62.4006H66.504V67.2H65.5015ZM65.5015 61.7441V60.5908H66.504V61.7441H65.5015ZM67.9244 69.1605C67.8062 69.1605 67.6879 69.1487 67.5696 69.125C67.4572 69.1073 67.3537 69.0777 67.2591 69.0363V68.1758C67.3301 68.1935 67.4158 68.2083 67.5164 68.2201C67.6169 68.2379 67.7145 68.2468 67.8091 68.2468C68.0871 68.2468 68.2911 68.1847 68.4212 68.0605C68.5573 67.9422 68.6785 67.7559 68.785 67.5016L69.1043 66.7741L69.0866 67.6169L67.0107 62.4006H68.0841L69.6189 66.4015H69.2551L70.781 62.4006H71.8633L69.7431 67.7234C69.6307 68.0072 69.4887 68.2556 69.3172 68.4685C69.1516 68.6874 68.9535 68.8559 68.7229 68.9742C68.4981 69.0984 68.232 69.1605 67.9244 69.1605ZM73.6358 67.3064C73.3105 67.3064 73.0237 67.2502 72.7753 67.1379C72.5328 67.0196 72.3436 66.8599 72.2075 66.6588C72.0715 66.4518 72.0035 66.2093 72.0035 65.9314C72.0035 65.6711 72.0597 65.4375 72.1721 65.2305C72.2903 65.0235 72.4707 64.8491 72.7132 64.7071C72.9557 64.5652 73.2603 64.4646 73.6269 64.4055L75.2948 64.1305V64.92L73.8221 65.1773C73.556 65.2246 73.3608 65.3104 73.2366 65.4346C73.1124 65.5528 73.0503 65.7066 73.0503 65.8959C73.0503 66.0792 73.1183 66.23 73.2544 66.3483C73.3963 66.4607 73.5767 66.5169 73.7955 66.5169C74.0676 66.5169 74.3041 66.4577 74.5052 66.3394C74.7122 66.2212 74.8719 66.0644 74.9843 65.8693C75.0966 65.6682 75.1528 65.4464 75.1528 65.2039V63.9708C75.1528 63.7342 75.0641 63.542 74.8867 63.3942C74.7152 63.2404 74.4845 63.1635 74.1947 63.1635C73.9286 63.1635 73.695 63.2345 73.4939 63.3764C73.2987 63.5125 73.1538 63.6899 73.0592 63.9087L72.2253 63.4918C72.314 63.2552 72.4589 63.0482 72.66 62.8708C72.8611 62.6874 73.0947 62.5455 73.3608 62.4449C73.6329 62.3444 73.9197 62.2941 74.2213 62.2941C74.5998 62.2941 74.934 62.3651 75.2238 62.507C75.5195 62.649 75.7472 62.8471 75.9069 63.1014C76.0725 63.3498 76.1553 63.6396 76.1553 63.9708V67.2H75.1972V66.3306L75.4012 66.3572C75.2888 66.5523 75.1439 66.7209 74.9665 66.8628C74.795 67.0048 74.5969 67.1142 74.3721 67.1911C74.1533 67.268 73.9079 67.3064 73.6358 67.3064Z" fill="#2650D6"/>
<g clip-path="url(#clip0_226_5981)">
<path d="M57.4844 55.1999H37.0469C36.325 55.1999 35.7344 54.6092 35.7344 53.8827V31.0452C35.7344 30.3233 36.325 29.7327 37.0469 29.7327H40.4828C40.7359 29.7327 40.9375 29.9342 40.9375 30.1874C40.9375 30.4405 40.7359 30.642 40.4828 30.642H37.0469C36.8219 30.642 36.6437 30.8249 36.6437 31.0452V53.8827C36.6437 54.1077 36.8266 54.2905 37.0469 54.2905H57.4891C57.7141 54.2905 57.8969 54.1077 57.8969 53.8827V43.3077C57.8969 43.0545 58.0984 42.853 58.3516 42.853C58.6047 42.853 58.8062 43.0545 58.8062 43.3077V53.8827C58.8062 54.6092 58.2156 55.1999 57.4844 55.1999ZM58.3516 41.353C58.0984 41.353 57.8969 41.1514 57.8969 40.8983V31.0452C57.8969 30.8202 57.7141 30.642 57.4891 30.642H54.0531C53.8 30.642 53.5984 30.4405 53.5984 30.1874C53.5984 29.9342 53.8 29.7327 54.0531 29.7327H57.4891C58.2156 29.7327 58.8062 30.3233 58.8062 31.0452V40.8983C58.8062 41.1514 58.6 41.353 58.3516 41.353Z" fill="#34495C"/>
<path d="M54.0904 32.175H40.4498C40.1967 32.175 39.9951 31.9734 39.9951 31.7203V30.6046C39.9951 28.9546 41.3357 27.614 42.9857 27.614H44.4389C44.6545 26.2453 45.8404 25.2 47.2654 25.2C48.6904 25.2 49.8811 26.2453 50.0967 27.614H51.5498C53.1998 27.614 54.5404 28.9546 54.5404 30.6046V31.7203C54.5451 31.9734 54.3389 32.175 54.0904 32.175ZM40.8998 31.2656H53.6311V30.6046C53.6311 29.4562 52.6982 28.5234 51.5498 28.5234H49.6795C49.4264 28.5234 49.2248 28.3218 49.2248 28.0687C49.2248 26.9906 48.3482 26.1093 47.2654 26.1093C46.1873 26.1093 45.3061 26.9859 45.3061 28.0687C45.3061 28.3218 45.1045 28.5234 44.8514 28.5234H42.9811C41.8326 28.5234 40.8998 29.4562 40.8998 30.6046V31.2656Z" fill="#34495C"/>
<path d="M47.266 29.7139C46.4457 29.7139 45.7754 29.0436 45.7754 28.2233C45.7754 27.403 46.4457 26.7327 47.266 26.7327C48.0863 26.7327 48.7566 27.403 48.7566 28.2233C48.7566 29.0436 48.091 29.7139 47.266 29.7139ZM47.266 27.642C46.9473 27.642 46.6848 27.9045 46.6848 28.2233C46.6848 28.542 46.9473 28.8045 47.266 28.8045C47.5848 28.8045 47.8473 28.542 47.8473 28.2233C47.8473 27.9045 47.5895 27.642 47.266 27.642Z" fill="#34495C"/>
<path d="M43.7271 39.3045H39.7334C39.2271 39.3045 38.8193 38.892 38.8193 38.3905V34.3967C38.8193 33.8905 39.2318 33.4827 39.7334 33.4827H43.7271C44.2334 33.4827 44.6412 33.8952 44.6412 34.3967V38.3905C44.6459 38.892 44.2334 39.3045 43.7271 39.3045ZM39.7334 34.3874L39.7287 38.3905L43.7318 38.3952C43.7365 38.3952 43.7365 38.3905 43.7365 38.3905V34.3967L39.7334 34.3874Z" fill="#F6B64E"/>
<path d="M41.2611 37.5561C41.1439 37.5561 41.0268 37.5139 40.9377 37.4249L40.1971 36.6842C40.0189 36.5061 40.0189 36.2202 40.1971 36.042C40.3752 35.8639 40.6611 35.8639 40.8393 36.042L41.2611 36.4639L42.6205 35.1045C42.7986 34.9264 43.0846 34.9264 43.2627 35.1045C43.4408 35.2827 43.4408 35.5686 43.2627 35.7467L41.5799 37.4295C41.4908 37.5092 41.3783 37.5561 41.2611 37.5561Z" fill="#F6B64E"/>
<path d="M55.2676 35.5312H46.3707C46.1176 35.5312 45.916 35.3296 45.916 35.0765C45.916 34.8234 46.1176 34.6218 46.3707 34.6218H55.2676C55.5207 34.6218 55.7223 34.8234 55.7223 35.0765C55.7223 35.3296 55.516 35.5312 55.2676 35.5312ZM55.2676 38.1609H46.3707C46.1176 38.1609 45.916 37.9593 45.916 37.7062C45.916 37.4531 46.1176 37.2515 46.3707 37.2515H55.2676C55.5207 37.2515 55.7223 37.4531 55.7223 37.7062C55.7223 37.9593 55.516 38.1609 55.2676 38.1609Z" fill="#34495C"/>
<path d="M43.7271 46.139H39.7334C39.2271 46.139 38.8193 45.7265 38.8193 45.225V41.2312C38.8193 40.725 39.2318 40.3171 39.7334 40.3171H43.7271C44.2334 40.3171 44.6412 40.7296 44.6412 41.2312V45.225C44.6459 45.7312 44.2334 46.139 43.7271 46.139ZM39.7334 41.2218L39.7287 45.225L43.7318 45.2296C43.7365 45.2296 43.7365 45.225 43.7365 45.225V41.2312L39.7334 41.2218Z" fill="#F6B64E"/>
<path d="M41.2611 44.3906C41.1439 44.3906 41.0268 44.3484 40.9377 44.2593L40.1971 43.5187C40.0189 43.3406 40.0189 43.0546 40.1971 42.8765C40.3752 42.6984 40.6611 42.6984 40.8393 42.8765L41.2611 43.2984L42.6205 41.939C42.7986 41.7609 43.0846 41.7609 43.2627 41.939C43.4408 42.1171 43.4408 42.4031 43.2627 42.5812L41.5799 44.264C41.4908 44.3484 41.3783 44.3906 41.2611 44.3906Z" fill="#F6B64E"/>
<path d="M55.2676 42.3703H46.3707C46.1176 42.3703 45.916 42.1688 45.916 41.9156C45.916 41.6625 46.1176 41.4609 46.3707 41.4609H55.2676C55.5207 41.4609 55.7223 41.6625 55.7223 41.9156C55.7223 42.1688 55.516 42.3703 55.2676 42.3703ZM52.9426 44.9953H46.3707C46.1176 44.9953 45.916 44.7937 45.916 44.5406C45.916 44.2875 46.1176 44.0859 46.3707 44.0859H52.9379C53.191 44.0859 53.3926 44.2875 53.3926 44.5406C53.3926 44.7937 53.191 44.9953 52.9426 44.9953Z" fill="#34495C"/>
<path d="M43.7271 52.9781H39.7334C39.2271 52.9781 38.8193 52.5656 38.8193 52.0641V48.0703C38.8193 47.5641 39.2318 47.1562 39.7334 47.1562H43.7271C44.2334 47.1562 44.6412 47.5688 44.6412 48.0703V52.0641C44.6459 52.5656 44.2334 52.9781 43.7271 52.9781ZM39.7334 48.0609L39.7287 52.0594L43.7318 52.0641C43.7365 52.0641 43.7365 52.0594 43.7365 52.0594V48.0656L39.7334 48.0609Z" fill="#F6B64E"/>
<path d="M41.2611 51.2297C41.1439 51.2297 41.0268 51.1875 40.9377 51.0984L40.1971 50.3578C40.0189 50.1797 40.0189 49.8938 40.1971 49.7156C40.3752 49.5375 40.6611 49.5375 40.8393 49.7156L41.2611 50.1375L42.6205 48.7781C42.7986 48.6 43.0846 48.6 43.2627 48.7781C43.4408 48.9562 43.4408 49.2422 43.2627 49.4203L41.5799 51.1031C41.4908 51.1828 41.3783 51.2297 41.2611 51.2297Z" fill="#F6B64E"/>
<path d="M51.2598 49.2048H46.3707C46.1176 49.2048 45.916 49.0032 45.916 48.7501C45.916 48.497 46.1176 48.2954 46.3707 48.2954H51.2598C51.5129 48.2954 51.7145 48.497 51.7145 48.7501C51.7145 49.0032 51.5129 49.2048 51.2598 49.2048ZM55.2676 51.8298H46.3707C46.1176 51.8298 45.916 51.6282 45.916 51.3751C45.916 51.122 46.1176 50.9204 46.3707 50.9204H55.2676C55.5207 50.9204 55.7223 51.122 55.7223 51.3751C55.7223 51.6282 55.516 51.8298 55.2676 51.8298Z" fill="#34495C"/>
<path d="M54.2973 47.6906C54.1098 47.6906 53.9223 47.6203 53.777 47.4796L53.0691 46.7625C52.9285 46.6265 52.8535 46.439 52.8535 46.2421C52.8535 46.0406 52.9332 45.8578 53.0785 45.7171L56.9129 41.8687C57.091 41.6906 57.377 41.6906 57.5551 41.8687C57.7332 42.0468 57.7332 42.3328 57.5551 42.5109L53.8332 46.2421L54.2973 46.7109L58.0145 42.9843C58.1926 42.8062 58.4785 42.8062 58.6566 42.9843C58.8348 43.1624 58.8348 43.4484 58.6566 43.6265L54.8176 47.475C54.6723 47.6156 54.4848 47.6906 54.2973 47.6906Z" fill="#F6B64E"/>
<path d="M58.4361 43.8515C58.3189 43.8515 58.2017 43.8093 58.1127 43.7203L56.8236 42.4312C56.7392 42.3468 56.6924 42.2296 56.6924 42.1078C56.6924 41.9859 56.7392 41.8734 56.8236 41.7843L62.5236 36.075C62.6595 35.939 62.8564 35.8781 63.0345 35.864C63.2267 35.864 63.4095 35.939 63.5455 36.075L64.4549 36.9796C64.7361 37.2609 64.7361 37.725 64.4549 38.0062L58.7595 43.7156C58.6705 43.8046 58.5533 43.8515 58.4361 43.8515ZM57.7892 42.1078L58.4361 42.7546L63.6814 37.4953L63.0345 36.8484L57.7892 42.1078ZM52.4877 48.5015C52.3705 48.5015 52.2533 48.4546 52.1642 48.3703C52.0189 48.225 51.9908 48.0046 52.0892 47.8265L52.9892 46.2187C53.1111 45.9984 53.3924 45.9234 53.608 46.0453C53.8283 46.1671 53.9033 46.4437 53.7814 46.664L53.6689 46.8656L53.8705 46.7531C54.0908 46.6312 54.3674 46.7109 54.4892 46.9265C54.6111 47.1468 54.5314 47.4234 54.3158 47.5453L52.708 48.4406C52.6424 48.4828 52.5627 48.5015 52.4877 48.5015Z" fill="#F6B64E"/>
<path d="M60.9209 43.5516C60.8037 43.5516 60.6865 43.5094 60.5975 43.4204C60.4193 43.2422 60.4193 42.9563 60.5975 42.7782L63.5412 39.8344L61.474 37.7672C61.2959 37.5891 61.2959 37.3032 61.474 37.125C61.6521 36.9469 61.9381 36.9469 62.1162 37.125L64.5021 39.511C64.6803 39.6891 64.6803 39.975 64.5021 40.1532L61.2396 43.4204C61.1553 43.5047 61.0381 43.5516 60.9209 43.5516Z" fill="#F6B64E"/>
</g>
<defs>
<clipPath id="clip0_226_5981">
<rect width="30" height="30" fill="white" transform="translate(35.2002 25.2)"/>
</clipPath>
</defs>
</svg>
