<svg width="100" height="100" viewBox="0 0 100 100" fill="none" xmlns="http://www.w3.org/2000/svg">
<rect x="0.4" y="0.4" width="99.2" height="99.2" rx="7.6" fill="white" stroke="#2650D6" stroke-width="0.8"/>
<path d="M44.9513 74.3561C44.2314 74.3561 43.5895 74.2043 43.0257 73.9007C42.4705 73.5971 42.0325 73.1807 41.7115 72.6516C41.3993 72.1225 41.2431 71.5196 41.2431 70.8431V64.5066H42.7785V70.778C42.7785 71.203 42.8695 71.5804 43.0517 71.91C43.2425 72.2396 43.4984 72.4955 43.8194 72.6776C44.149 72.8598 44.5263 72.9509 44.9513 72.9509C45.385 72.9509 45.7624 72.8598 46.0833 72.6776C46.4129 72.4955 46.6688 72.2396 46.851 71.91C47.0418 71.5804 47.1372 71.203 47.1372 70.778V64.5066H48.6595V70.8431C48.6595 71.5196 48.5034 72.1225 48.1911 72.6516C47.8789 73.1807 47.4408 73.5971 46.877 73.9007C46.3218 74.2043 45.68 74.3561 44.9513 74.3561ZM49.5432 74.2V73.0289L54.5135 65.8728H49.8294V64.5066H56.4782V65.6646L51.5079 72.8338H56.5953V74.2H49.5432ZM57.5603 74.2V64.5066H59.0956V74.2H57.5603Z" fill="#2650D6"/>
<path d="M63.0625 25.5134H36.9375V43.3884H63.0625V25.5134Z" fill="#C4DEF9"/>
<path d="M63.75 22.7634H36.25C35.1109 22.7634 34.1875 23.7841 34.1875 25.0431V49.3586C34.1875 50.6176 35.1109 51.6384 36.25 51.6384H63.75C64.8891 51.6384 65.8125 50.6176 65.8125 49.3586V25.0431C65.8125 23.7841 64.8891 22.7634 63.75 22.7634Z" fill="#C4DEF9"/>
<path d="M63.0625 25.5134H36.9375V43.3884H63.0625V25.5134Z" fill="#C4DEF9"/>
<path d="M38.3125 48.2009C38.6922 48.2009 39 47.8931 39 47.5134C39 47.1337 38.6922 46.8259 38.3125 46.8259C37.9328 46.8259 37.625 47.1337 37.625 47.5134C37.625 47.8931 37.9328 48.2009 38.3125 48.2009Z" fill="#C4DEF9"/>
<path d="M41.0625 48.2009C41.4422 48.2009 41.75 47.8931 41.75 47.5134C41.75 47.1337 41.4422 46.8259 41.0625 46.8259C40.6828 46.8259 40.375 47.1337 40.375 47.5134C40.375 47.8931 40.6828 48.2009 41.0625 48.2009Z" fill="#C4DEF9"/>
<path d="M43.8125 48.2009C44.1922 48.2009 44.5 47.8931 44.5 47.5134C44.5 47.1337 44.1922 46.8259 43.8125 46.8259C43.4328 46.8259 43.125 47.1337 43.125 47.5134C43.125 47.8931 43.4328 48.2009 43.8125 48.2009Z" fill="#C4DEF9"/>
<path d="M61.6875 48.8884C62.4469 48.8884 63.0625 48.2728 63.0625 47.5134C63.0625 46.754 62.4469 46.1384 61.6875 46.1384C60.9281 46.1384 60.3125 46.754 60.3125 47.5134C60.3125 48.2728 60.9281 48.8884 61.6875 48.8884Z" fill="#C4DEF9"/>
<path d="M56.1875 48.8884C56.9469 48.8884 57.5625 48.2728 57.5625 47.5134C57.5625 46.754 56.9469 46.1384 56.1875 46.1384C55.4281 46.1384 54.8125 46.754 54.8125 47.5134C54.8125 48.2728 55.4281 48.8884 56.1875 48.8884Z" fill="#C4DEF9"/>
<path fill-rule="evenodd" clip-rule="evenodd" d="M36.9453 35.3709H41.4471L43.6924 31.8592L45.9502 38.8826L48.1956 35.3709H50.6774L52.6987 30.1047L56.3012 40.6386L58.5576 35.3723H63.0538" fill="#C4DEF9"/>
<path d="M63.0625 25.5142H36.9375V43.3892H63.0625V25.5142Z" fill="#70B6FE"/>
<path d="M61.6875 48.8892C62.4469 48.8892 63.0625 48.2736 63.0625 47.5142C63.0625 46.7548 62.4469 46.1392 61.6875 46.1392C60.9281 46.1392 60.3125 46.7548 60.3125 47.5142C60.3125 48.2736 60.9281 48.8892 61.6875 48.8892Z" fill="#70B6FE"/>
<path d="M56.1875 48.8892C56.9469 48.8892 57.5625 48.2736 57.5625 47.5142C57.5625 46.7548 56.9469 46.1392 56.1875 46.1392C55.4281 46.1392 54.8125 46.7548 54.8125 47.5142C54.8125 48.2736 55.4281 48.8892 56.1875 48.8892Z" fill="#70B6FE"/>
<path d="M36.25 22.075C34.699 22.075 33.5 23.4458 33.5 25.0422V49.3604C33.5 50.9568 34.699 52.325 36.25 52.325H63.75C65.301 52.325 66.5 50.9568 66.5 49.3604V25.0422C66.5 23.4472 65.301 22.075 63.75 22.075H36.25ZM36.25 23.45H63.75C64.4842 23.45 65.125 24.1141 65.125 25.0422V49.3604C65.125 50.2899 64.4842 50.95 63.75 50.95H36.25C35.5157 50.95 34.875 50.2899 34.875 49.3604V25.0422C34.875 24.1141 35.5157 23.45 36.25 23.45ZM36.9375 24.825C36.7552 24.825 36.5803 24.8974 36.4514 25.0263C36.3224 25.1553 36.25 25.3301 36.25 25.5125V35.3121C36.2473 35.3468 36.2473 35.3818 36.25 35.4166V43.3875C36.25 43.5698 36.3224 43.7446 36.4514 43.8736C36.5803 44.0025 36.7552 44.075 36.9375 44.075H63.0625C63.2448 44.075 63.4197 44.0025 63.5486 43.8736C63.6776 43.7446 63.75 43.5698 63.75 43.3875V35.4303C63.7527 35.3955 63.7527 35.3606 63.75 35.3258V25.5125C63.75 25.3301 63.6776 25.1553 63.5486 25.0263C63.4197 24.8974 63.2448 24.825 63.0625 24.825H36.9375ZM37.625 26.2H62.375V34.6837H58.5594C58.4245 34.6833 58.2925 34.7226 58.1798 34.7967C58.0671 34.8708 57.9786 34.9763 57.9255 35.1003L56.3717 38.7262L53.3495 29.8822C53.3011 29.74 53.2073 29.6174 53.0827 29.5335C52.958 29.4496 52.8093 29.4088 52.6593 29.4174C52.5272 29.4251 52.4001 29.4706 52.2933 29.5487C52.1864 29.6267 52.1044 29.7339 52.057 29.8575L50.2062 34.6837H48.196C48.0805 34.6834 47.9668 34.7122 47.8654 34.7675C47.764 34.8228 47.6781 34.9027 47.6158 34.9999L46.1596 37.2824L44.3474 31.6491C44.3075 31.5249 44.2332 31.4146 44.133 31.3312C44.0328 31.2477 43.911 31.1944 43.7817 31.1775C43.6524 31.1606 43.521 31.1809 43.4027 31.2359C43.2845 31.2909 43.1844 31.3784 43.114 31.4882L41.0708 34.6837H37.625V26.2ZM52.662 32.1193L55.6499 40.8602C55.6949 40.9914 55.7786 41.106 55.8899 41.1888C56.0012 41.2716 56.135 41.3188 56.2737 41.3242C56.4123 41.3295 56.5493 41.2928 56.6667 41.2188C56.7841 41.1449 56.8764 41.0371 56.9314 40.9097L59.0131 36.0587H62.375V42.7H37.625V36.0587H41.4489C41.5639 36.0585 41.6771 36.0295 41.7779 35.9742C41.8788 35.919 41.9643 35.8393 42.0264 35.7425L43.4839 33.4599L45.2947 39.0933C45.3342 39.2182 45.4085 39.3292 45.509 39.4132C45.6094 39.4973 45.7317 39.5509 45.8615 39.5678C45.9914 39.5847 46.1234 39.5642 46.2419 39.5086C46.3605 39.453 46.4608 39.3648 46.5309 39.2542L48.5714 36.0587H50.6792C50.8182 36.0588 50.954 36.0169 51.0686 35.9383C51.1832 35.8598 51.2714 35.7484 51.3214 35.6187L52.662 32.1193ZM56.1875 45.45C55.0559 45.45 54.125 46.3822 54.125 47.5125C54.125 48.6441 55.0559 49.575 56.1875 49.575C57.3191 49.575 58.25 48.6441 58.25 47.5125C58.25 46.3822 57.3191 45.45 56.1875 45.45ZM61.6875 45.45C60.5559 45.45 59.625 46.3822 59.625 47.5125C59.625 48.6441 60.5559 49.575 61.6875 49.575C62.8191 49.575 63.75 48.6441 63.75 47.5125C63.75 46.3822 62.8191 45.45 61.6875 45.45ZM38.3125 46.825C38.1302 46.825 37.9553 46.8974 37.8264 47.0263C37.6974 47.1553 37.625 47.3301 37.625 47.5125C37.625 47.6948 37.6974 47.8696 37.8264 47.9986C37.9553 48.1275 38.1302 48.2 38.3125 48.2C38.4948 48.2 38.6697 48.1275 38.7986 47.9986C38.9276 47.8696 39 47.6948 39 47.5125C39 47.3301 38.9276 47.1553 38.7986 47.0263C38.6697 46.8974 38.4948 46.825 38.3125 46.825ZM41.0625 46.825C40.8802 46.825 40.7053 46.8974 40.5764 47.0263C40.4474 47.1553 40.375 47.3301 40.375 47.5125C40.375 47.6948 40.4474 47.8696 40.5764 47.9986C40.7053 48.1275 40.8802 48.2 41.0625 48.2C41.2448 48.2 41.4197 48.1275 41.5486 47.9986C41.6776 47.8696 41.75 47.6948 41.75 47.5125C41.75 47.3301 41.6776 47.1553 41.5486 47.0263C41.4197 46.8974 41.2448 46.825 41.0625 46.825ZM43.8125 46.825C43.6302 46.825 43.4553 46.8974 43.3264 47.0263C43.1974 47.1553 43.125 47.3301 43.125 47.5125C43.125 47.6948 43.1974 47.8696 43.3264 47.9986C43.4553 48.1275 43.6302 48.2 43.8125 48.2C43.9948 48.2 44.1697 48.1275 44.2986 47.9986C44.4276 47.8696 44.5 47.6948 44.5 47.5125C44.5 47.3301 44.4276 47.1553 44.2986 47.0263C44.1697 46.8974 43.9948 46.825 43.8125 46.825ZM56.1875 46.825C56.5753 46.825 56.875 47.1247 56.875 47.5125C56.875 47.9002 56.5753 48.2 56.1875 48.2C56.0969 48.2012 56.0069 48.1844 55.9229 48.1503C55.8389 48.1162 55.7626 48.0656 55.6985 48.0015C55.6344 47.9374 55.5838 47.8611 55.5497 47.7771C55.5156 47.6931 55.4987 47.6031 55.5 47.5125C55.5 47.1247 55.7997 46.825 56.1875 46.825ZM61.6875 46.825C62.0753 46.825 62.375 47.1247 62.375 47.5125C62.375 47.9002 62.0753 48.2 61.6875 48.2C61.5969 48.2012 61.5069 48.1844 61.4229 48.1503C61.3389 48.1162 61.2626 48.0656 61.1985 48.0015C61.1344 47.9374 61.0838 47.8611 61.0497 47.7771C61.0156 47.6931 60.9987 47.6031 61 47.5125C61 47.1247 61.2997 46.825 61.6875 46.825Z" fill="#0572E4"/>
</svg>
